<svg xmlns="http://www.w3.org/2000/svg" xmlns:xlink="http://www.w3.org/1999/xlink" viewBox="0 0 841.89 595.28"><defs><style>.cls-1,.cls-13{fill:none;}.cls-2{fill:#d32431;}.cls-3{fill:#681011;}.cls-4{fill:#f26b6c;}.cls-5{clip-path:url(#clip-path);}.cls-12,.cls-6{fill:#231f20;}.cls-10,.cls-6{fill-rule:evenodd;}.cls-7{clip-path:url(#clip-path-2);}.cls-8{clip-path:url(#clip-path-3);}.cls-9{clip-path:url(#clip-path-6);}.cls-10{fill:#2babe2;}.cls-11{clip-path:url(#clip-path-7);}.cls-13{stroke:#d32431;stroke-miterlimit:10;stroke-width:2px;}</style><clipPath id="clip-path"><rect class="cls-1" x="37.38" y="34.76" width="202.64" height="97.73"/></clipPath><clipPath id="clip-path-2"><rect class="cls-1" x="37.38" y="34.76" width="202.64" height="97.73"/></clipPath><clipPath id="clip-path-3"><rect class="cls-1" x="37.38" y="34.75" width="202.64" height="97.73"/></clipPath><clipPath id="clip-path-6"><rect class="cls-1" x="37.38" y="34.76" width="202.64" height="97.73"/></clipPath><clipPath id="clip-path-7"><rect class="cls-1" x="37.38" y="34.75" width="202.64" height="97.73"/></clipPath></defs><g id="Layer_5" data-name="Layer 5"><g id="actual-ribbon"><g id="base"><polygon class="cls-2" points="710.78 51.15 679.17 32.9 679.17 69.39 699.21 57.82 710.78 51.15"/><polygon class="cls-2" points="710.78 14.86 710.78 51.14 742.38 32.9 711.15 14.86 710.78 14.86"/><polygon class="cls-2" points="699.21 57.82 679.17 69.39 710.78 87.64 710.78 51.14 699.21 57.82"/><polygon class="cls-2" points="773.99 87.64 773.99 51.14 742.38 69.39 773.99 87.64"/><polygon class="cls-2" points="805.6 69.39 797.13 74.28 773.99 87.64 805.6 105.89 805.6 69.39"/><polygon class="cls-2" points="710.78 124.13 742.38 142.38 742.38 105.89 710.78 124.13"/><polygon class="cls-2" points="773.99 124.13 805.6 105.89 773.99 87.64 773.99 124.13"/><polygon class="cls-2" points="797.13 137.49 805.6 142.38 805.6 105.89 773.99 124.13 797.13 137.49"/><polygon class="cls-2" points="733.92 173.99 742.38 178.88 742.38 142.38 710.78 160.63 733.92 173.99"/><polygon class="cls-2" points="755.74 150.09 742.38 142.38 742.38 178.88 773.99 160.63 755.74 150.09"/><polygon class="cls-2" points="773.99 197.12 742.38 178.88 742.38 215.37 773.99 197.12"/><polygon class="cls-2" points="742.38 178.88 773.99 197.12 773.99 160.63 742.38 178.88"/><polygon class="cls-2" points="679.17 215.37 679.17 251.87 710.78 233.62 679.17 215.37"/><polygon class="cls-2" points="679.17 215.37 710.78 233.62 710.78 197.12 679.17 215.37"/><polygon class="cls-2" points="805.6 215.37 773.99 197.12 773.99 233.62 805.6 215.37"/></g><g id="dark"><polygon class="cls-3" points="710.41 14.86 679.17 14.86 679.17 32.9 710.41 14.86"/><polygon class="cls-3" points="742.38 14.86 711.15 14.86 742.38 32.9 742.38 14.86"/><polygon class="cls-3" points="742.38 69.39 742.38 32.9 710.78 51.15 742.38 69.39"/><polygon class="cls-3" points="805.6 69.39 805.6 32.9 773.99 51.15 805.6 69.39"/><polygon class="cls-3" points="742.38 69.39 710.78 87.64 742.38 105.89 742.38 69.39"/><polyline class="cls-3" points="773.99 51.14 773.99 87.64 797.13 74.28 805.6 69.39"/><polygon class="cls-3" points="710.78 124.13 679.17 105.89 679.17 142.38 710.78 124.13"/><polygon class="cls-3" points="710.78 87.64 710.78 124.13 742.38 105.89 710.78 87.64"/><polygon class="cls-3" points="710.78 87.64 679.17 105.89 710.78 124.13 710.78 87.64"/><polygon class="cls-3" points="742.38 142.38 710.78 124.13 710.78 160.63 742.38 142.38"/><polygon class="cls-3" points="710.78 124.13 679.17 142.38 710.78 160.63 710.78 124.13"/><polygon class="cls-3" points="773.99 160.63 805.6 142.38 797.13 137.49 773.99 124.13 773.99 160.63"/><polygon class="cls-3" points="773.99 124.13 742.38 142.38 755.74 150.09 773.99 160.63 773.99 124.13"/><polygon class="cls-3" points="785.56 167.31 805.6 178.88 805.6 142.38 773.99 160.63 785.56 167.31"/><polygon class="cls-3" points="710.78 197.12 742.38 178.88 733.92 173.99 710.78 160.63 710.78 197.12"/><polygon class="cls-3" points="710.78 160.63 679.17 178.88 692.53 186.59 710.78 197.12 710.78 160.63"/><polygon class="cls-3" points="722.35 203.8 742.38 215.37 742.38 178.88 710.78 197.12 722.35 203.8"/><polygon class="cls-3" points="710.88 233.62 742.42 215.26 710.75 197.12 710.88 233.62"/><polygon class="cls-3" points="805.6 251.87 805.6 215.37 773.99 233.62 805.6 251.87"/><polygon class="cls-3" points="805.6 14.86 774.36 14.86 805.6 32.9 805.6 14.86"/><polygon class="cls-3" points="773.99 14.86 773.99 51.14 805.6 32.9 774.36 14.86 773.99 14.86"/></g><g id="highlight"><polygon class="cls-4" points="710.41 14.86 679.17 32.9 710.78 51.14 710.78 14.86 710.41 14.86"/><polygon class="cls-4" points="679.17 69.39 679.17 105.89 710.78 87.64 679.17 69.39"/><polygon class="cls-4" points="742.38 69.39 742.38 105.89 773.99 87.64 742.38 69.39"/><polygon class="cls-4" points="710.78 160.63 679.17 142.38 679.17 178.88 710.78 160.63"/><polygon class="cls-4" points="773.99 197.12 805.6 178.88 785.56 167.31 773.99 160.63 773.99 197.12"/><polygon class="cls-4" points="805.6 215.37 805.6 178.88 773.99 197.12 805.6 215.37"/><polygon class="cls-4" points="742.38 215.37 773.99 233.62 773.99 197.12 742.38 215.37"/></g></g><g id="Logo_Unesp" data-name="Logo Unesp"><g class="cls-5"><path class="cls-6" d="M65.71,55.4V87.06h-8.3V83.3a11.78,11.78,0,0,1-4.21,3.45,12.29,12.29,0,0,1-5.4,1.15c-3.48,0-6.08-.91-7.82-2.73s-2.6-4.56-2.6-8.19V55.4h8.47V74.54c0,2.25.38,3.85,1.14,4.82a4.48,4.48,0,0,0,3.75,1.44A6.34,6.34,0,0,0,55.47,79a6.64,6.64,0,0,0,1.76-4.88V55.4Z"/></g><g class="cls-7"><path class="cls-6" d="M167.3,99.78V55.43h8.07v4.29a12.31,12.31,0,0,1,4.09-4.08,10.63,10.63,0,0,1,5.32-1.28A11.55,11.55,0,0,1,194.27,59q3.63,4.62,3.64,12.13t-3.64,12.33a11.34,11.34,0,0,1-9.38,4.73,11.22,11.22,0,0,1-5.4-1.28,10.82,10.82,0,0,1-4-3.73V99.78Zm22.19-28.33c0-3.19-.61-5.62-1.81-7.3a6,6,0,0,0-5.24-2.52,5.91,5.91,0,0,0-5.14,2.51c-1.17,1.67-1.76,4.1-1.76,7.31a11.32,11.32,0,0,0,1.85,6.93,6.19,6.19,0,0,0,5.23,2.45,5.89,5.89,0,0,0,5-2.51,11.43,11.43,0,0,0,1.84-6.87"/></g><g class="cls-8"><path class="cls-6" d="M143.73,77.48a4.19,4.19,0,0,0,1.68,2.89,8.35,8.35,0,0,0,4.89,1.18,7.38,7.38,0,0,0,3.83-.83,2.59,2.59,0,0,0,1.36-2.35c0-1.43-1.69-2.52-5.07-3.23-1.38-.29-2.48-.55-3.29-.75-4.12-1.06-7-2.29-8.58-3.73a7.43,7.43,0,0,1-2.4-5.83,9.39,9.39,0,0,1,3.5-7.69q3.51-2.84,9.51-2.84,6.34,0,10,2.82A10.15,10.15,0,0,1,163,65.07h-8.24A3.94,3.94,0,0,0,153.22,62a6.48,6.48,0,0,0-4-1.1,6.87,6.87,0,0,0-3.58.73,2.38,2.38,0,0,0-1.18,2.18c0,1.26,2.1,2.39,6.32,3.35l2.29.53c4.21,1,7.1,2.18,8.64,3.57A7.57,7.57,0,0,1,164,77.12a9.61,9.61,0,0,1-3.79,8.22q-3.79,2.82-11.05,2.82-6.57,0-10.26-2.94a9.71,9.71,0,0,1-3.7-7.74Z"/></g><g class="cls-8"><path class="cls-6" d="M111.1,67.93h12.46a7.27,7.27,0,0,0-1.69-4.88,6,6,0,0,0-4.57-1.67A5.67,5.67,0,0,0,113,63.07a7.81,7.81,0,0,0-1.85,4.86m12.35,9.55h8.44a13.46,13.46,0,0,1-5.16,7.84,15.7,15.7,0,0,1-9.49,2.84,13.72,13.72,0,0,1-10.89-4.61q-4-4.62-4-12.51t4-12.26q4-4.48,10.83-4.48,7.29,0,11.26,4.41t4,12.57c0,.6,0,1,0,1.36a7.66,7.66,0,0,1-.08.85H111.1a9.08,9.08,0,0,0,1.82,5.62A5.92,5.92,0,0,0,117.65,81a6.73,6.73,0,0,0,3.58-.86,5.87,5.87,0,0,0,2.22-2.66"/></g><g class="cls-5"><path class="cls-6" d="M70.69,87.06V55.4H79v3.76a11.69,11.69,0,0,1,4.2-3.45,12.44,12.44,0,0,1,5.38-1.15c3.5,0,6.12.9,7.85,2.72S99,61.82,99,65.48V87.06H90.55V67.93c0-2.28-.39-3.9-1.15-4.86a4.46,4.46,0,0,0-3.74-1.46,6.28,6.28,0,0,0-4.74,1.79,6.7,6.7,0,0,0-1.75,4.88V87.06Z"/></g><g class="cls-9"><path class="cls-10" d="M234.78,54.8,240,45.72H229.55Zm-6.33-8.44-5.24,9.07h10.47l-5.23-9.07m0,19.42,5.23-9.08H223.21l5.24,9.08m-6.33-8.45-5.24,9.08h10.47l-5.23-9.08M221,56.7H210.55l5.24,9.08L221,56.7m-5.23-10.34-5.24,9.07H221l-5.23-9.07m1.09-.64,5.24,9.08,5.23-9.08H216.88m5.24-10.34-5.24,9.08h10.47l-5.23-9.08m-6.33,8.44L221,34.75H210.55l5.24,9.07m-6.33-8.44-5.24,9.08h10.47l-5.23-9.08m0,19.42,5.23-9.08H204.22l5.24,9.08-6.33-8.41-5.22,9h10.43l-5.21-9,6.33,8.41"/></g><g class="cls-11"><path class="cls-6" d="M190.7,125.3v-1.45h1.53v1.43a1.63,1.63,0,0,1-.43,1.16,1.52,1.52,0,0,1-1.1.5v-.57a1.07,1.07,0,0,0,.62-.34,1,1,0,0,0,.2-.66v-.07Zm2.41,0v-1.45h1.53v1.43a1.67,1.67,0,0,1-.42,1.16,1.56,1.56,0,0,1-1.11.5v-.57a1.1,1.1,0,0,0,.62-.34.94.94,0,0,0,.2-.64v-.09h-.82m-11.27,2.59a4.37,4.37,0,0,1,1.06-3.1,4.18,4.18,0,0,1,5.76,0,5,5,0,0,1,0,6.2,4.18,4.18,0,0,1-5.76,0,4.37,4.37,0,0,1-1.06-3.1m1.69,0a3.25,3.25,0,0,0,.59,2.07,2.24,2.24,0,0,0,3.33,0,3.19,3.19,0,0,0,.6-2.07,3.23,3.23,0,0,0-.6-2.07,2.26,2.26,0,0,0-3.33,0,3.25,3.25,0,0,0-.59,2.07m-9.68,4v-8.07h1.67v3h3.33v-3h1.67v8.07h-1.67v-3.58h-3.33v3.58h-1.67m-6.51,0v-8.07H169v6.58h3.94v1.49h-5.6M164,123.85h1.66v8.07H164Zm-6.76,8.07v-8.07h5.63v1.4h-4v1.83h3.51v1.41h-3.51v3.43h-1.63m-8.85-8.07h1.92l2.91,8.07h-1.75l-.55-1.66h-3.12l-.53,1.66h-1.75l2.87-8.07m1,1.62-1.11,3.43h2.24l-1.13-3.43m-7.59,6.45v-6.63h-2.4v-1.44h6.44v1.44h-2.38v6.63h-1.66m-5.06-8.07h1.66v8.07h-1.66Zm-8.15,0h1.67v5.06a2.14,2.14,0,0,0,.37,1.37,1.53,1.53,0,0,0,1.19.43,1.48,1.48,0,0,0,1.19-.43,2.06,2.06,0,0,0,.38-1.37v-5.06H135v5.24a3,3,0,0,1-.83,2.28,3.31,3.31,0,0,1-2.39.79,3.37,3.37,0,0,1-2.41-.79,3,3,0,0,1-.83-2.28v-5.24m-3.08,7.76a3,3,0,0,1-1,.41,4.52,4.52,0,0,1-1.19.14,3.7,3.7,0,0,1-2.87-1.15,5,5,0,0,1,0-6.2,4.17,4.17,0,0,1,5.75,0,4.39,4.39,0,0,1,1.07,3.1,5.23,5.23,0,0,1-.22,1.57,3.5,3.5,0,0,1-.65,1.24l.88.84-.9.94-.92-.89m-1.16-1.1-.86-.84.91-.94.88.86a3.08,3.08,0,0,0,.27-.76,4.35,4.35,0,0,0,.09-.92,3.23,3.23,0,0,0-.6-2.07,2,2,0,0,0-1.67-.73,2,2,0,0,0-1.65.73,3.87,3.87,0,0,0,0,4.14,2,2,0,0,0,1.65.74,2.18,2.18,0,0,0,.52-.06,2.47,2.47,0,0,0,.46-.15m-12.42-1.06h1.63a1.4,1.4,0,0,0,.55,1,2.23,2.23,0,0,0,1.29.32,1.88,1.88,0,0,0,1.09-.26.85.85,0,0,0,.37-.76c0-.49-.7-.89-2.11-1.21l0,0-.17,0a5.28,5.28,0,0,1-1.61-.56,1.8,1.8,0,0,1-.65-.74,2.44,2.44,0,0,1-.23-1.09,2.13,2.13,0,0,1,.81-1.8,3.65,3.65,0,0,1,2.31-.63,3.32,3.32,0,0,1,2.21.67,2.44,2.44,0,0,1,.84,1.88h-1.6a1.18,1.18,0,0,0-.44-.89,2,2,0,0,0-1.16-.31,1.71,1.71,0,0,0-1,.26.85.85,0,0,0-.35.72c0,.43.46.75,1.37,1l.59.14c.58.15,1,.27,1.25.35a3.84,3.84,0,0,1,.64.28,1.74,1.74,0,0,1,.74.73,2.16,2.16,0,0,1,.25,1.08,2.36,2.36,0,0,1-.85,1.95,3.7,3.7,0,0,1-2.39.69,3.66,3.66,0,0,1-2.39-.7,2.6,2.6,0,0,1-.93-2m-7,2.49v-8.07h5.86v1.4h-4.22V127h3.86v1.38h-3.86v2.08h4.42v1.49h-6.06m-9.79,0v-8.07h2.46l1.6,6.14,1.59-6.14h2.46v8.07h-1.55v-6.51L100,131.92h-1.7l-1.66-6.51v6.51H95.09m-10.51,0v-8.07h5.86v1.4H86.22V127h3.86v1.38H86.22v2.08h4.42v1.49H84.58m-8.16,0v-8.07h3.16a3.56,3.56,0,0,1,2.77,1,4.38,4.38,0,0,1,.91,3,5.31,5.31,0,0,1-.33,2,3.3,3.3,0,0,1-1,1.36,2.92,2.92,0,0,1-1.1.55,6.91,6.91,0,0,1-1.72.17H76.42m1.63-1.46h1.33a2.09,2.09,0,0,0,1.67-.6,3,3,0,0,0,.52-2,3.28,3.28,0,0,0-.48-2,1.76,1.76,0,0,0-1.51-.64H78.05v5.19m-14-2.57a4.33,4.33,0,0,1,1.07-3.1A3.7,3.7,0,0,1,68,123.64a3.75,3.75,0,0,1,2.88,1.15,5,5,0,0,1,0,6.2A3.75,3.75,0,0,1,68,132.14,3.7,3.7,0,0,1,65.1,131a4.33,4.33,0,0,1-1.07-3.1m1.69,0a3.25,3.25,0,0,0,.59,2.07,2.24,2.24,0,0,0,3.33,0,3.19,3.19,0,0,0,.6-2.07,3.23,3.23,0,0,0-.6-2.07,2.26,2.26,0,0,0-3.33,0,3.25,3.25,0,0,0-.59,2.07m-4.73-4h1.66v8.07H61Zm-6.56,8.07v-8.07h1.66v6.58H60v1.49H54.43m-3.25-10.8-1.72,2h-.77l1.07-2h1.42m-4.85,2.71H48v5.06a2.08,2.08,0,0,0,.37,1.37,1.86,1.86,0,0,0,2.38,0,2.06,2.06,0,0,0,.38-1.37v-5.06H52.8v5.24a3,3,0,0,1-.83,2.28,4,4,0,0,1-4.8,0,3,3,0,0,1-.84-2.28v-5.24m-6.72,5.08h1.61v1a.8.8,0,0,0,.25.64,1.05,1.05,0,0,0,.72.22.86.86,0,0,0,.72-.27,1.7,1.7,0,0,0,.2-1v-5.63h1.66v5.7a5.13,5.13,0,0,1-.09,1.13,1.67,1.67,0,0,1-.3.63,2,2,0,0,1-.87.62,3.65,3.65,0,0,1-1.3.21A3.76,3.76,0,0,1,41,132a2.29,2.29,0,0,1-.88-.56,1.7,1.7,0,0,1-.39-.66,4.21,4.21,0,0,1-.12-1.2v-.63m-.71-3.64v1.45H37.37V125.3a1.68,1.68,0,0,1,.43-1.16,1.54,1.54,0,0,1,1.1-.5v.56a1.08,1.08,0,0,0-.62.35,1,1,0,0,0-.2.65v.07h.82m2.41,0v1.45H39.78V125.3a1.68,1.68,0,0,1,.43-1.16,1.54,1.54,0,0,1,1.1-.5v.56a1.07,1.07,0,0,0-.61.34,1,1,0,0,0-.21.64v.09h.82m-3.94-16.75h1.68v5.07a2.08,2.08,0,0,0,.37,1.37,1.9,1.9,0,0,0,2.38,0,2.06,2.06,0,0,0,.38-1.37v-5.07h1.66v5.25a3,3,0,0,1-.83,2.28,3.31,3.31,0,0,1-2.39.79,3.37,3.37,0,0,1-2.41-.79,3,3,0,0,1-.84-2.28v-5.25m8.1,8.1v-8.07h1.74l3.27,5.54v-5.54h1.64v8.07H50.41l-3.3-5.55v5.55H45.47m8.37-8.07H55.5v8.07H53.84Zm5.29,8.07-2.79-8.07h1.84l1.72,6,1.75-6h1.81l-2.74,8.07H59.13m5.11,0v-8.07H70.1V110H65.88v1.72h3.86v1.38H65.88v2.08H70.3v1.49H64.24m9-4.54h2a1.43,1.43,0,0,0,.94-.26,1,1,0,0,0,.29-.81,1,1,0,0,0-.29-.8,1.22,1.22,0,0,0-.86-.27h-2v2.14m-1.66,4.54v-8.07h3.91a2.92,2.92,0,0,1,2,.56,2.21,2.21,0,0,1,.64,1.73,2.25,2.25,0,0,1-.32,1.23,1.52,1.52,0,0,1-.89.67,1.36,1.36,0,0,1,.75.57,2.67,2.67,0,0,1,.26,1.2l0,.95v0c0,.48.12.77.31.87v.25H76.4a1.9,1.9,0,0,1-.13-.42,4.67,4.67,0,0,1-.06-.6l0-.85a1.6,1.6,0,0,0-.28-1,1.3,1.3,0,0,0-.92-.26H73.23v3.14H71.57m7.64-2.5h1.64a1.38,1.38,0,0,0,.54,1,2.25,2.25,0,0,0,1.3.32,1.9,1.9,0,0,0,1.09-.26.85.85,0,0,0,.37-.76c0-.49-.7-.9-2.11-1.22H82l-.17,0a5.33,5.33,0,0,1-1.61-.55,1.73,1.73,0,0,1-.65-.74,2.47,2.47,0,0,1-.23-1.09,2.17,2.17,0,0,1,.8-1.81,3.76,3.76,0,0,1,2.31-.62,3.4,3.4,0,0,1,2.22.66,2.47,2.47,0,0,1,.84,1.89H83.9a1.16,1.16,0,0,0-.45-.89,1.83,1.83,0,0,0-1.15-.31,1.71,1.71,0,0,0-1,.26.81.81,0,0,0-.35.72c0,.43.45.75,1.37,1l.58.14c.59.15,1,.26,1.25.35a3,3,0,0,1,.65.28,1.83,1.83,0,0,1,.74.72,2.28,2.28,0,0,1,.25,1.09,2.39,2.39,0,0,1-.85,2,3.73,3.73,0,0,1-2.4.69,3.64,3.64,0,0,1-2.39-.71,2.67,2.67,0,0,1-.93-2m7.91-5.57h1.66v8.07H87.12Zm5,6.61h1.33a2.06,2.06,0,0,0,1.67-.61,3,3,0,0,0,.52-2,3.33,3.33,0,0,0-.48-2,1.77,1.77,0,0,0-1.51-.63H92.14v5.19m-1.63,1.46v-8.07h3.16a3.56,3.56,0,0,1,2.77,1,4.39,4.39,0,0,1,.92,3,5.31,5.31,0,0,1-.34,2,3.19,3.19,0,0,1-1,1.36,3,3,0,0,1-1.09.55,7,7,0,0,1-1.73.17H90.51m11.08-6.46-1.12,3.44h2.24l-1.12-3.44m-1-1.61h1.92l2.91,8.07h-1.74l-.55-1.66H100l-.53,1.66H97.75l2.87-8.07m7.29,6.61h1.33a2.06,2.06,0,0,0,1.67-.61,3,3,0,0,0,.52-2,3.33,3.33,0,0,0-.48-2,1.77,1.77,0,0,0-1.51-.63h-1.53v5.19m-1.63,1.46v-8.07h3.16a3.56,3.56,0,0,1,2.77,1,4.38,4.38,0,0,1,.91,3,5.31,5.31,0,0,1-.33,2,3.27,3.27,0,0,1-1,1.36,2.92,2.92,0,0,1-1.1.55,6.91,6.91,0,0,1-1.72.17h-2.71m8.16,0v-8.07h5.86V110h-4.22v1.72h3.86v1.38h-3.86v2.08h4.42v1.49h-6.06m10.51,0v-8.07h5.86V110h-4.22v1.72h3.86v1.38h-3.86v2.08H131v1.49H125m7-2.5h1.64a1.38,1.38,0,0,0,.54,1,2.25,2.25,0,0,0,1.3.32,1.93,1.93,0,0,0,1.09-.26.85.85,0,0,0,.37-.76c0-.49-.71-.9-2.11-1.22h-.05l-.17,0a5.22,5.22,0,0,1-1.61-.55,1.75,1.75,0,0,1-.66-.74,2.61,2.61,0,0,1-.22-1.09,2.17,2.17,0,0,1,.8-1.81,3.72,3.72,0,0,1,2.31-.62,3.35,3.35,0,0,1,2.21.66,2.51,2.51,0,0,1,.85,1.89h-1.6a1.16,1.16,0,0,0-.45-.89,1.86,1.86,0,0,0-1.16-.31,1.68,1.68,0,0,0-1,.26.82.82,0,0,0-.36.72q0,.65,1.38,1l.58.14c.59.15,1,.26,1.25.35a3.26,3.26,0,0,1,.65.28,1.9,1.9,0,0,1,.74.72,2.28,2.28,0,0,1,.24,1.09,2.36,2.36,0,0,1-.85,2,3.68,3.68,0,0,1-2.39.69,3.62,3.62,0,0,1-2.39-.71,2.6,2.6,0,0,1-.93-2m9.53,2.5V110H139v-1.44h6.44V110H143.1v6.63h-1.66m7.59-6.46-1.11,3.44h2.24L149,110.16m-1-1.61H150l2.91,8.07h-1.75l-.54-1.66h-3.13l-.53,1.66H145.2l2.87-8.07m7.29,6.61h1.33a2.06,2.06,0,0,0,1.67-.61,3,3,0,0,0,.52-2,3.33,3.33,0,0,0-.48-2,1.79,1.79,0,0,0-1.51-.63h-1.53v5.19m-1.63,1.46v-8.07h3.16a3.56,3.56,0,0,1,2.77,1,4.38,4.38,0,0,1,.91,3,5.31,5.31,0,0,1-.33,2,3.36,3.36,0,0,1-1,1.36,2.92,2.92,0,0,1-1.1.55,6.91,6.91,0,0,1-1.72.17h-2.71m8.11-8.1h1.67v5.07a2.08,2.08,0,0,0,.38,1.37,1.49,1.49,0,0,0,1.18.42,1.53,1.53,0,0,0,1.2-.42,2.06,2.06,0,0,0,.37-1.37v-5.07h1.66v5.25a3,3,0,0,1-.83,2.28,3.31,3.31,0,0,1-2.39.79,3.37,3.37,0,0,1-2.41-.79,3,3,0,0,1-.83-2.28v-5.25m10.9,1.64-1.12,3.44h2.24l-1.12-3.44m-1-1.61h1.91l2.91,8.07h-1.74l-.55-1.66h-3.13l-.53,1.66H168.9l2.88-8.07m5.66,8.07v-8.07h1.66v6.58H183v1.49h-5.59m11.36-4.34h1.61a1.4,1.4,0,0,0,1-.27,1.2,1.2,0,0,0,.29-.89,1.18,1.18,0,0,0-.29-.87,1.14,1.14,0,0,0-.86-.3h-1.7v2.33m0,1.47v2.87h-1.66v-8.07h3.59a2.61,2.61,0,0,1,1.93.66,2.65,2.65,0,0,1,.65,1.93,2.68,2.68,0,0,1-.64,1.93,2.41,2.41,0,0,1-1.83.68h-2m8.11-3.59-1.12,3.44H198l-1.12-3.44m-1-1.61h1.91l2.91,8.07H199l-.55-1.66h-3.13l-.53,1.66h-1.75l2.88-8.07m5.41,0H203v5.07a2.08,2.08,0,0,0,.37,1.37,1.5,1.5,0,0,0,1.18.42,1.53,1.53,0,0,0,1.2-.42,2.06,2.06,0,0,0,.37-1.37v-5.07h1.67v5.25a3,3,0,0,1-.83,2.28,4,4,0,0,1-4.8,0,3,3,0,0,1-.84-2.28v-5.25m8.09,8.1v-8.07h1.67v6.58H215v1.49h-5.6m6.57-8.07h1.66v8.07H216Zm3,5.57h1.64a1.38,1.38,0,0,0,.54,1,2.25,2.25,0,0,0,1.3.32,1.93,1.93,0,0,0,1.09-.26.87.87,0,0,0,.36-.76c0-.49-.7-.9-2.11-1.22h0l-.17,0a5.33,5.33,0,0,1-1.61-.55,1.8,1.8,0,0,1-.65-.74,2.47,2.47,0,0,1-.22-1.09A2.15,2.15,0,0,1,220,109a3.72,3.72,0,0,1,2.31-.62,3.37,3.37,0,0,1,2.21.66,2.47,2.47,0,0,1,.84,1.89h-1.59a1.16,1.16,0,0,0-.45-.89,1.86,1.86,0,0,0-1.16-.31,1.68,1.68,0,0,0-1,.26.82.82,0,0,0-.36.72q0,.65,1.38,1l.58.14c.59.15,1,.26,1.25.35a3.26,3.26,0,0,1,.65.28,1.81,1.81,0,0,1,.73.72,2.17,2.17,0,0,1,.25,1.09,2.36,2.36,0,0,1-.85,2,3.68,3.68,0,0,1-2.39.69,3.62,3.62,0,0,1-2.39-.71,2.6,2.6,0,0,1-.93-2m9.53,2.5V110h-2.4v-1.44h6.43V110h-2.37v6.63h-1.66m7.59-6.46L235,113.6h2.24l-1.12-3.44m-1-1.61h1.91l2.91,8.07h-1.74l-.55-1.66H234.6l-.53,1.66h-1.75l2.87-8.07"/></g></g><g id="Logo_CACiC" data-name="Logo CACiC"><path class="cls-3" d="M160.45,492.68H166c.29.91.53,1.83.88,2.7a8.41,8.41,0,0,0,2.95,3.86,6.29,6.29,0,0,0,3,1,105.26,105.26,0,0,0,10.95.22,2.9,2.9,0,0,1,2.85,1.86,2.75,2.75,0,0,1-2,3.61,12,12,0,0,1-2.16.14c-2.58,0-5.16,0-7.74-.07a16.32,16.32,0,0,1-6.57-1.33,11.37,11.37,0,0,1-3.22-2.31,16.28,16.28,0,0,1-4.17-7.88c-.13-.56-.19-1.14-.28-1.71C160.42,492.76,160.44,492.73,160.45,492.68Z"/><path class="cls-3" d="M122.67,492.68H128c.25,0,.32.08.38.33a10.32,10.32,0,0,0,3.11,5.71,5.46,5.46,0,0,0,3.05,1.34c1.34.15,2.7.26,4,.28,2.46,0,4.92,0,7.38,0a2.88,2.88,0,0,1,2.35,1,2.72,2.72,0,0,1-1.5,4.42,9.74,9.74,0,0,1-2.16.15c-2.58,0-5.16,0-7.74-.07a16.42,16.42,0,0,1-6.55-1.32,11.68,11.68,0,0,1-4-3.13,15.84,15.84,0,0,1-3.24-6.33C123,494.32,122.85,493.52,122.67,492.68Z"/><path class="cls-3" d="M122.82,488c.36-1.11.63-2.17,1-3.19a17.36,17.36,0,0,1,3.93-6,13.33,13.33,0,0,1,6.18-3.4,14.12,14.12,0,0,1,3.67-.42l8.89.07a2.84,2.84,0,0,1,2.57,2.18,2.77,2.77,0,0,1-2.42,3.32c-.24,0-.49.06-.73.05l-8.19-.05a8.55,8.55,0,0,0-5.34,1.61,9.33,9.33,0,0,0-2.67,3.25c-.39.76-.69,1.56-1,2.34-.05.1-.18.23-.27.23C126.61,488,124.79,488,122.82,488Z"/><path class="cls-3" d="M160.64,488a18.64,18.64,0,0,1,3.64-7.7,13.26,13.26,0,0,1,6.74-4.56,13.91,13.91,0,0,1,3.95-.61l9.25.07a2.81,2.81,0,0,1,2.6,2.23,2.75,2.75,0,0,1-2.4,3.26c-.3,0-.6.07-.9.07l-8.06-.06a8.65,8.65,0,0,0-5.34,1.62,9.26,9.26,0,0,0-2.64,3.22c-.39.72-.67,1.5-1,2.25a.42.42,0,0,1-.29.2C164.35,488,162.52,488,160.64,488Z"/><path class="cls-3" d="M116.65,488c-2,0-3.92,0-5.87,0a.38.38,0,0,1-.25-.2c-.33-.74-.64-1.49-1-2.31-.31.75-.62,1.43-.88,2.12a.51.51,0,0,1-.59.41c-1.85,0-3.71,0-5.61,0l.82-2c1.16-2.79,2.32-5.58,3.46-8.38a3.18,3.18,0,0,1,1.84-2A2.76,2.76,0,0,1,112,477.1c.47,1,.86,2,1.28,3l3.23,7.61Z"/><path class="cls-3" d="M112.58,492.67h5.84a.39.39,0,0,1,.28.18c1.33,3.14,2.67,6.27,4,9.41a2.76,2.76,0,0,1-1.8,3.8,2.69,2.69,0,0,1-3.16-1.37c-.49-.95-.88-2-1.3-2.95q-1.86-4.38-3.71-8.77C112.67,492.89,112.64,492.8,112.58,492.67Z"/><path class="cls-3" d="M106.54,492.69c-.24.62-.48,1.22-.72,1.82-1.34,3.23-2.67,6.47-4,9.69a2.79,2.79,0,0,1-5.35-.27,3.68,3.68,0,0,1,.32-2.17q1.82-4.41,3.65-8.82a.45.45,0,0,1,.33-.26c1.88,0,3.75,0,5.63,0Z"/><path class="cls-3" d="M151.84,492.68h5.56v.37c0,3.47,0,6.94-.09,10.41a2.57,2.57,0,0,1-1.69,2.43,2.64,2.64,0,0,1-2.92-.51,2.75,2.75,0,0,1-.92-2.18c0-3.42,0-6.84.06-10.26Z"/><path class="cls-3" d="M154.61,475.42a2.78,2.78,0,1,1-2.83,2.67A2.75,2.75,0,0,1,154.61,475.42Z"/><path class="cls-3" d="M157.45,488h-5.6a5.61,5.61,0,0,1,.35-2.72,2.78,2.78,0,0,1,2.68-1.48,2.7,2.7,0,0,1,2.43,2.12A15.68,15.68,0,0,1,157.45,488Z"/><path class="cls-3" d="M86.57,529.54c3.45,1.11,6.54,1.64,6.94,1.18-1.13-.15-2.25-.23-3.35-.44s-2.13-.56-3.2-.85v-.09c.49-.25,1-.51,1.46-.73a2.66,2.66,0,0,1,2.32,0c.88.42,1.73.89,2.61,1.31a6.13,6.13,0,0,0,3.23.62l-.24.16a11.65,11.65,0,0,1-3.29,1.35,9,9,0,0,1-4.28,0,2.25,2.25,0,0,1-1.48-1.22C87.09,530.39,86.82,530,86.57,529.54Z"/><path class="cls-3" d="M66.65,499.76l.7.8a3.17,3.17,0,0,1,2.26-2.84.44.44,0,0,0,.18-.31,2.26,2.26,0,0,1,.42-1.26c.2-.23.41-.45.64-.69a3.71,3.71,0,0,0-.44,0,2,2,0,0,1-2-1.46,3.6,3.6,0,0,1,0-2c.19-.84.41-1.68.6-2.52a1,1,0,0,0,0-.24c-.07.07-.16.13-.18.2s-.11.43-.16.64c-.21.89-.42,1.77-.62,2.66-.83,0-.84,0-.86-.84a17.52,17.52,0,0,1,.36-3.46c0-.11.07-.21.1-.32L68,488c0-.58.35-1.13,0-1.7a.65.65,0,0,1,0-.45c.12-.32.26-.64.4-1,0-.08.11-.17.1-.25a1.83,1.83,0,0,1,.37-1.36,3.47,3.47,0,0,0,.56-1.12,2.82,2.82,0,0,1,1-1.43,2.73,2.73,0,0,0,.3-.36c.28-.37.54-.75.84-1.1s.51-.36.66-.6a4.31,4.31,0,0,1,1.5-1.44.75.75,0,0,0,.25-.22,3.69,3.69,0,0,1,1.82-1.36.72.72,0,0,0,.33-.21,3.28,3.28,0,0,1,1.69-.92,5,5,0,0,0,.59-.25,11.81,11.81,0,0,1,1.12-.44c.41-.12.86-.06,1.22-.34a1.06,1.06,0,0,1,.39-.13c.73-.18,1.21.08,1.34.62-.32.42-.56.79-.85,1.13-.12.13-.35.29-.49.26s-.14-.31-.06-.47.34-.56.52-.84a1.16,1.16,0,0,0-1.2.31,3.53,3.53,0,0,0-.52.93c-.09.21-.33.47-.49.41s-.22-.3-.15-.49.19-.49.29-.75a.86.86,0,0,0-.16,0A1.54,1.54,0,0,0,78.16,476c0,.26-.23.54-.42.5s-.3-.28-.27-.49.12-.53.18-.83l-.33.1a1.38,1.38,0,0,0-.92,1.55.43.43,0,0,1-.39.5c-.26.06-.34-.17-.36-.36a4.08,4.08,0,0,1,0-.68c-.24.16-.46.27-.66.41a1.09,1.09,0,0,0-.34,1.4.55.55,0,0,1-.13.48.28.28,0,0,1-.48,0,5.76,5.76,0,0,1-.37-.71,6.1,6.1,0,0,0-.66.76.66.66,0,0,0,.25,1c.23.12.15.3,0,.45a.5.5,0,0,1-.74.07,6.12,6.12,0,0,1-.47-.61,1.19,1.19,0,0,0-.57.75.62.62,0,0,0,.3.82c.26.14.23.28.07.47a.49.49,0,0,1-.69.09c-.19-.11-.35-.25-.56-.39a6,6,0,0,0-.45.73.64.64,0,0,0,.55.88c.1,0,.25.09.27.16a.39.39,0,0,1-.11.34,1,1,0,0,1-.57.16,3,3,0,0,1-.72-.29,5.39,5.39,0,0,0-.25.48.67.67,0,0,0,.68,1c.12,0,.25,0,.38,0s.36.19.18.37a1,1,0,0,1-.61.31,4.82,4.82,0,0,1-1-.12c0,.09-.09.22-.13.35a.66.66,0,0,0,.62.91c.18,0,.37-.05.55-.05s.31,0,.36.13a.37.37,0,0,1-.09.36,1.6,1.6,0,0,1-.58.26,5.46,5.46,0,0,1-.81,0,1,1,0,0,0,.08.91,1,1,0,0,0,1.2.2,11.32,11.32,0,0,0,.91-.68l.09.27c.61,0,1.22,0,1.83,0,.09,0,.2-.12.24-.21.31-.65.58-1.32.92-1.95a9.4,9.4,0,0,1,2.64-3.23A8.6,8.6,0,0,1,82.19,481c2.68,0,5.37,0,8,.06a8.5,8.5,0,0,0,.87-.07,2.76,2.76,0,0,0,2.41-3.29,2.85,2.85,0,0,0-2.6-2.2l-7.11-.06c-.23,0-.35,0-.37-.31a4.51,4.51,0,0,0-1-2.68.9.9,0,0,0-.56-.31,6.09,6.09,0,0,0-1,.05c-.22,0-.35,0-.41-.27a4.55,4.55,0,0,0-1.36-2.7,8.25,8.25,0,0,0-.17-1.41,24.43,24.43,0,0,0-.89-2.28,4.11,4.11,0,0,1-.37-2.1,2.3,2.3,0,0,0-.07-.58c-.15.11-.3.22-.44.34s0,.06-.06.09l-1,1.53,0,0L75.14,463a34.72,34.72,0,0,0-6.41-9.43,52.07,52.07,0,0,0-7.29-6.46c-.95-.68-1.92-1.35-2.88-2a.57.57,0,0,0-.34-.08s-.11.18-.1.27c.18,1.14.33,2.29.56,3.42A13.68,13.68,0,0,0,61,454.15c.34.47.7.94,1,1.41l0,0c-.2-.12-.39-.25-.58-.38a56.29,56.29,0,0,0-9.23-5.14,1.31,1.31,0,0,0-.35,0,1.45,1.45,0,0,0,0,.36c.31,1,.59,1.95.94,2.9a14.1,14.1,0,0,0,3.17,5.17l.91.89c-1.6-.53-3.17-1.09-4.76-1.57a31,31,0,0,0-4.89-1.11,19.61,19.61,0,0,0,4.63,6.56c-.72-.14-1.4-.32-2.09-.46-1.29-.24-2.58-.48-3.87-.7-.58-.09-1.17-.15-1.76-.21-.08,0-.23,0-.24.08a.37.37,0,0,0,.06.27c.25.38.5.77.78,1.13.76,1,1.5,2,2.33,2.93A23.42,23.42,0,0,0,49,468h-.25c-1.06-.12-2.12-.24-3.19-.34-.5-.05-1-.08-1.5-.1l-3.37-.11h-.11c-.27.06-.33.2-.14.4.72.8,1.43,1.61,2.18,2.38A13.81,13.81,0,0,0,48,473.82l1.49.52c-.11,0-.14,0-.16,0a45.79,45.79,0,0,0-7.22.24c-1.35.13-2.7.36-4,.56-.1,0-.28.09-.28.15a.48.48,0,0,0,.15.31c.55.45,1.12.89,1.67,1.33a14.75,14.75,0,0,0,7.52,3.36.92.92,0,0,1-.24.11c-1.62.43-3.25.81-4.86,1.29-1.35.41-2.67.93-4,1.41a1.85,1.85,0,0,0-.4.29,2.24,2.24,0,0,0,.37.32c.32.18.66.34,1,.51a18.83,18.83,0,0,0,4.86,1.85l1.24.23c-1.12.44-2.2.83-3.25,1.28-1.29.56-2.57,1.17-3.86,1.77-.1.05-.17.18-.26.28a1.37,1.37,0,0,0,.28.21,23.26,23.26,0,0,0,5.84,1.85,1.49,1.49,0,0,1-.17.15c-1.42.92-2.87,1.82-4.26,2.78-1,.66-1.88,1.41-2.81,2.13a1.15,1.15,0,0,0-.21.34c.11,0,.22.1.33.13l.93.16a20.41,20.41,0,0,0,5,.42A14.58,14.58,0,0,0,46,497.2l1.68-.6a.41.41,0,0,1,0,.09c-1.37,1.14-2.79,2.21-4.08,3.42-1.47,1.36-2.82,2.84-4.22,4.28a1,1,0,0,0-.12.27.91.91,0,0,0,.3.11c1.32,0,2.64,0,4-.08a10.37,10.37,0,0,0,3.17-.62c1-.37,2-.82,2.93-1.21l0,.07c-.72.94-1.49,1.86-2.15,2.85-1.08,1.61-2.09,3.27-3.12,4.92a1.3,1.3,0,0,0-.09.4,1.7,1.7,0,0,0,.39,0c.37-.06.75-.14,1.12-.22a18.82,18.82,0,0,0,4.63-1.43c.49-.23,1-.48,1.46-.74a.34.34,0,0,1,0,.11c-.62,1.05-1.26,2.09-1.84,3.17s-1.19,2.36-1.76,3.55a.59.59,0,0,0,0,.35s.19.05.28,0c1.12-.35,2.26-.68,3.36-1.09a12.39,12.39,0,0,0,4.89-3c1.36-1.44,2.64-3,3.89-4.51,1.47-1.79,2.87-3.65,4.32-5.46C65.43,501.11,66.05,500.45,66.65,499.76ZM56.42,465.71h0s0-.08,0-.12S56.42,465.67,56.42,465.71Z"/><path class="cls-3" d="M89.1,506.38a10.42,10.42,0,0,0,2.17-.15,2.73,2.73,0,0,0,1.5-4.43,2.94,2.94,0,0,0-2.34-1c-2.62,0-5.23,0-7.85,0a19.22,19.22,0,0,1-3.93-.35A5.25,5.25,0,0,1,75.91,499c.39,0,.78.06,1.17.07.08,0,.16-.08.24-.13a.62.62,0,0,0-.23-.14,1.3,1.3,0,0,1-1.09-.66,6.34,6.34,0,0,1-.5-1.17,2.13,2.13,0,0,0-2-1.7.36.36,0,0,1-.24-.19c-.19-.7-.38-1.4-.54-2.11-.05-.21-.11-.3-.33-.3H69.1c.29-1.21.56-2.35.83-3.5l-.11,0a2.05,2.05,0,0,0-.16.38c-.26,1.11-.54,2.22-.75,3.34a1.66,1.66,0,0,0,1.17,2,8.81,8.81,0,0,0,1.36.11,1.65,1.65,0,0,1,1,.38l-.13.28a6.55,6.55,0,0,0,.69-.05,1.87,1.87,0,0,1,2.14,1.27,4.64,4.64,0,0,0,1,2l-2.34-.37a1.43,1.43,0,0,0-.07.38,3.21,3.21,0,0,0,.2.94c.07.15.34.2.51.3a2.81,2.81,0,0,1,1.33,1.6,5.34,5.34,0,0,1,0,2.35,4,4,0,0,0-2.1-1.52l.26.6c.19,0,.36-.06.39,0a.44.44,0,0,1,.06.35,6.41,6.41,0,0,1-1.22,2.29c-.06.08-.19.11-.29.16l-.08-.1A6.74,6.74,0,0,0,74,503.51l-.17-.09-.17-.08a3.24,3.24,0,0,1-1.16,1.84.25.25,0,0,0-.1.17c0,.39-.09.78-.14,1.26a18.48,18.48,0,0,0,1.82-1.2,2.75,2.75,0,0,0,.83-1.94c.41.59,0,1.09-.17,1.63l.46.14a20.54,20.54,0,0,0,6.16,1.06C83.94,506.36,86.52,506.37,89.1,506.38Z"/><path class="cls-3" d="M97.11,530.15a6.27,6.27,0,0,1-1.12.2,6.34,6.34,0,0,1-2.41-.6c-.86-.42-1.71-.86-2.57-1.29a3.11,3.11,0,0,0-3,0l-1.18.59a.79.79,0,0,1-.47.09c-.44-.13-.86-.32-1.28-.48.15-.68,0-1-.68-1.15a.38.38,0,0,1-.2-.23,3.87,3.87,0,0,0-2.56-2.54c-.45-.16-.93-.43-1.41-.08-.17.13-.29.09-.46,0a13.45,13.45,0,0,1-4.52-3.54,24,24,0,0,1-3.21-5.35c-.1-.24-.18-.48-.29-.77l.77.26.68.21.08-.16a2.14,2.14,0,0,1-1.23-1.11l-.12,0,.09.57-.27-.07c-.2.37-.2.37-.07.7a22.36,22.36,0,0,0,2,3.83,14.38,14.38,0,0,0,4,4.42c.68.45,1.38.85,2.08,1.27-.3.41-.31.42-.47.34a14.5,14.5,0,0,1-3.24-2.18,19.92,19.92,0,0,1-4.3-6.1c-.37-.75-.66-1.54-1-2.39a.83.83,0,0,0,.23.08h.4a3.61,3.61,0,0,0-.3-.25c-.36-.21-.73-.4-1.09-.6a.89.89,0,0,0-.21-.06c0,.36.27.38.43.53s.33.25.39.41a23.45,23.45,0,0,0,3,5.86A13.39,13.39,0,0,0,76.81,524c.84.59,1.72,1.13,2.6,1.71-.06.33-.13.72-.18,1.11a1.51,1.51,0,0,0,1.17,1.88,6.09,6.09,0,0,0,3,0,.32.32,0,0,1,.27.07.75.75,0,0,0,1.08.24.45.45,0,0,1,.28,0,2.18,2.18,0,0,1,1.6,1.24c.11.25.27.48.4.73a2.64,2.64,0,0,0,1.72,1.41,9.56,9.56,0,0,0,4.29,0,13.44,13.44,0,0,0,4-1.72.79.79,0,0,0,.25-.19,1.54,1.54,0,0,0,.11-.3A1.16,1.16,0,0,0,97.11,530.15Zm-.76.58a11.65,11.65,0,0,1-3.29,1.35,9,9,0,0,1-4.28,0,2.25,2.25,0,0,1-1.48-1.22c-.21-.44-.48-.85-.73-1.29,3.45,1.11,6.54,1.64,6.94,1.18-1.13-.15-2.25-.23-3.35-.44s-2.13-.56-3.2-.85v-.09c.49-.25,1-.51,1.46-.73a2.66,2.66,0,0,1,2.32,0c.88.42,1.73.89,2.61,1.31a6.13,6.13,0,0,0,3.23.62Z"/><path class="cls-3" d="M73.25,511.47c0-.25-.07-.48-.1-.67l-1.68.23-.24.48-.29-.49-.24,0c.33-.39.35-.65.1-1.36A5.59,5.59,0,0,1,69,511.32a1.21,1.21,0,0,1-.34.06c.06-.1.1-.24.19-.3a5.14,5.14,0,0,0,1.81-1.72.78.78,0,0,0-.19-1,.7.7,0,0,0-.63,0c-.17.12-.24.39-.35.59a3.21,3.21,0,0,1-.21.3c0-.11-.1-.21-.14-.32s0-.09,0-.13l-.1-.05a4,4,0,0,0-.43,1,3.34,3.34,0,0,1-.83,2c.54-.09,1-.14,1.46-.24s.88-.26,1.32-.39l0,.1-.53.36c.53.85,1.56,1.28,1.73,2.38.09-.1.13-.13.14-.17a11.21,11.21,0,0,0,.51-1.19c.16-.49.33-1-.1-1.46l0-.09Z"/><path class="cls-3" d="M73.61,506.17c-.45.2-.53.36-.43.86a3.42,3.42,0,0,0,2.63,2.48,2.67,2.67,0,0,1-.09-2,1.83,1.83,0,0,0-1-2c-.08,0-.19-.07-.25,0a.86.86,0,0,0-.47,1,5.15,5.15,0,0,0,1,2,3.34,3.34,0,0,1,.25.4l-.15.08A5.14,5.14,0,0,1,73.61,506.17Z"/><path class="cls-3" d="M72.85,499.2c-.2-.29-.41-.59-.59-.9a5.54,5.54,0,0,1-.64-2.41c-1,1.28.2,3.64,2.06,4.06a4.05,4.05,0,0,1,0-2.13,1.88,1.88,0,0,0-1.73-2.13,4.09,4.09,0,0,0,.33,1.9c.26.59.61,1.14.91,1.7A.31.31,0,0,1,72.85,499.2Z"/><path class="cls-3" d="M74.47,511.86a2.92,2.92,0,0,0,1.29-1.42c.19-.5.1-.65-.45-.73-.44,1.18-1,2-1.49,2.05A7.11,7.11,0,0,0,75,509.54c-.32-.2-.64-.41-1-.6a.34.34,0,0,0-.27.05,1.11,1.11,0,0,0-.46,1.2,4.13,4.13,0,0,1,0,2.26C73.73,512.25,74.11,512.07,74.47,511.86Z"/><path class="cls-3" d="M70.07,512.5c.05-.25-.24-.76-.4-.74l-1.23.27a6,6,0,0,0,.06.76c.1.5.23,1,.34,1.48,0,.07,0,.16,0,.24a.78.78,0,0,1-.2-.16.54.54,0,0,1-.07-.19L68.07,512l-.5.09c-.24,1.44.64,2.31,1.6,3.24a3.25,3.25,0,0,1,.64-2A3.27,3.27,0,0,0,70.07,512.5Z"/><path class="cls-3" d="M72.46,502c-.29-.49-.59-1-.83-1.49a8.4,8.4,0,0,1-.32-1,.46.46,0,0,0-.39.58c0,.22.07.44.13.65.31,1.16,1.27,1.63,2.27,2.15a2.77,2.77,0,0,1-.14-.67c0-.5.09-1,.11-1.49,0-.19,0-.49-.09-.58-.47-.35-1-.65-1.57-1a5.72,5.72,0,0,0,1.17,3.07A.53.53,0,0,1,72.46,502Z"/><path class="cls-3" d="M73.29,503.7c.18-.51.16-.55-.37-.76,0,.09-.06.17-.1.25-.29.55-.57,1.09-.87,1.62a1.18,1.18,0,0,1-.32.26l-.09-.09a2.53,2.53,0,0,1,.13-.22c.3-.56.61-1.12.9-1.68.11-.2.06-.34-.15-.45s-.51-.32-.76-.48a1.35,1.35,0,0,0-.58,1.44,7.61,7.61,0,0,1,.11,1.35,3.92,3.92,0,0,1-.12.77c.38-.22.74-.39,1.07-.6A2.8,2.8,0,0,0,73.29,503.7Z"/><path class="cls-3" d="M69.79,498.4c.08-.06.08-.25.12-.37a.77.77,0,0,0-.3,0,2.54,2.54,0,0,0-1.29.84,4.24,4.24,0,0,0-.73,2.58,3,3,0,0,1,1.78-.84,1.66,1.66,0,0,0,1.2-.72c-.39.18-.77.39-1.16.58a.92.92,0,0,1-.34,0c.06-.09.1-.22.19-.27a1.77,1.77,0,0,0,.75-1.6,5.05,5.05,0,0,0-1.69,1.69,2.27,2.27,0,0,1-.32.3,1.5,1.5,0,0,1,.12-.44A5.61,5.61,0,0,1,69.79,498.4Z"/><path class="cls-3" d="M72.89,507.33a8.94,8.94,0,0,0-1.38,2.16.47.47,0,0,1,0-.36,4.37,4.37,0,0,1,.27-.64c.22-.39.46-.78.7-1.17a3.76,3.76,0,0,1-.6.19.69.69,0,0,0-.58.55,4.89,4.89,0,0,0,0,2.22c.58-.92,1.7-1,2.43-1.55Z"/><path class="cls-3" d="M69.69,500.78a.57.57,0,0,0-.49.47,4.45,4.45,0,0,0,0,2.29c.46-.94,1.57-1,2.18-1.57l-.77-1.49c-.41.77-.79,1.51-1.18,2.25-.19-.24-.19-.24.83-2.16A2.4,2.4,0,0,1,69.69,500.78Z"/><path class="cls-3" d="M70.07,499.82c.42-.25.79-.44,1.14-.66s.41-.29.1-.71c-.27.17-.28.65-.82.68.16-.22.26-.37.36-.52a1,1,0,0,0,.23-.93,2.85,2.85,0,0,1,0-1.09,6.29,6.29,0,0,1,.31-1,1.94,1.94,0,0,0-1.25,2.29,5.44,5.44,0,0,1,.08,1.28A3.58,3.58,0,0,1,70.07,499.82Z"/><path class="cls-3" d="M72.81,506.63l-.06,0c-.38.19-.76.38-1.15.55a1.7,1.7,0,0,1-.46.07,2,2,0,0,1,.31-.33,1.34,1.34,0,0,0,.6-1.46,7.34,7.34,0,0,0-1,.75c-.32.31-.58.7-.88,1a.93.93,0,0,1-.26.15l-.08-.12c.2-.29.41-.59.61-.86h-.41a1.28,1.28,0,0,1,.24-.31,1.17,1.17,0,0,0,.58-.94,3.24,3.24,0,0,0-1.32,3,3.37,3.37,0,0,1,1.84-.75A2.26,2.26,0,0,0,72.81,506.63Z"/><path class="cls-3" d="M78.38,511.88c.07-.09.19-.17.2-.27.09-.58.15-1.17.24-1.76a3,3,0,0,0-2.17-3.43,5.85,5.85,0,0,0-.71-.12l0,.14c.09.05.18.14.27.15a2.7,2.7,0,0,1,2.28,1.81,4.48,4.48,0,0,1,0,2.38,4.34,4.34,0,0,0-2.18-1.51l-.08.07a1.61,1.61,0,0,0,.28.3c.39.22.82.39,1.19.64a1.42,1.42,0,0,1,.66,1.31A1.2,1.2,0,0,0,78.38,511.88Z"/><path class="cls-3" d="M64.92,511.92c.06-.29.12-.61.19-.92a2.76,2.76,0,0,1,3.37-2.15c.08,0,.18-.05.28-.08l0-.12-.2,0a2.93,2.93,0,0,0-3.39,1.57,19.8,19.8,0,0,0-.68,2.65c0,.08.07.17.11.26,0-.07.15-.13.17-.21a1.35,1.35,0,0,1,1-1,9.71,9.71,0,0,1,1.33-.22c.2,0,.38,0,.41-.3a9,9,0,0,0-1.29.12A10.21,10.21,0,0,0,64.92,511.92Z"/><path class="cls-3" d="M77.6,508.76c.14.29.24.6.38.89,0,.08.14.12.21.17s.07-.19,0-.26c-.09-.26-.2-.52-.31-.77A4.88,4.88,0,0,0,76,506.65l-.08.08a2,2,0,0,0,.28.36A5,5,0,0,1,77.6,508.76Z"/><path class="cls-3" d="M65.37,511.13l0,.11c.09,0,.2-.05.26-.12a5.66,5.66,0,0,1,2.54-1.83,1.46,1.46,0,0,0,.33-.22A4.57,4.57,0,0,0,65.37,511.13Z"/><path class="cls-3" d="M75.54,503.07a.61.61,0,0,0,0-.23c-.17-.44-.33-.89-.54-1.31a1.75,1.75,0,0,0-1.1-1,4.67,4.67,0,0,1,.57.71c.3.55.56,1.13.84,1.7A.67.67,0,0,0,75.54,503.07Z"/><path class="cls-3" d="M70.43,504.43l-.29.86.09,0c.24-.43.47-.86.7-1.29-.54.24-1.15.08-1.64.31l0,.14Z"/><path class="cls-3" d="M67.69,504.48h1.24l0-.11-.29-.15.26-.5-.12-.06a1.35,1.35,0,0,1-1.15.55c-.06,0-.13.09-.2.14S67.62,504.48,67.69,504.48Z"/><path class="cls-3" d="M75.39,498.32,74,497.39C74,497.78,74.89,498.45,75.39,498.32Z"/><path class="cls-3" d="M73.07,509.79l-1.5.77,0,.16a3.42,3.42,0,0,0,1.32-.59C73,510.09,73,510,73.07,509.79Z"/><path class="cls-3" d="M70.6,513.68c.22.21.36.59.87.55L70.31,513C70.19,513.24,70.18,513.26,70.6,513.68Z"/><path class="cls-3" d="M69,500.94l-.89.4.64.55C68.82,501.55,68.9,501.26,69,500.94Z"/><path class="cls-3" d="M69.49,503.91c.06,0,.15.06.2,0,.33-.17.66-.34,1-.53.08-.05.1-.18.15-.27l-.06,0c-.39.2-.77.4-1.16.62C69.54,503.76,69.52,503.85,69.49,503.91Z"/><path class="cls-3" d="M71.07,507.7l-.49.12c.08.24.14.45.22.73Z"/></g><path class="cls-12" d="M43.79,540.15H42.46a1.93,1.93,0,0,0-.29-.75,2.06,2.06,0,0,0-.51-.55,2.12,2.12,0,0,0-.67-.34,2.61,2.61,0,0,0-.79-.12,2.45,2.45,0,0,0-1.35.38,2.58,2.58,0,0,0-.94,1.11,4.91,4.91,0,0,0,0,3.59,2.53,2.53,0,0,0,.94,1.11,2.46,2.46,0,0,0,1.34.37,2.56,2.56,0,0,0,.79-.11,2.33,2.33,0,0,0,.67-.33,2.1,2.1,0,0,0,.52-.55,2.12,2.12,0,0,0,.29-.74h1.33a3.59,3.59,0,0,1-.41,1.18,3.34,3.34,0,0,1-1.87,1.53,4,4,0,0,1-1.33.22,3.82,3.82,0,0,1-2-.54,3.75,3.75,0,0,1-1.39-1.55,5.9,5.9,0,0,1,0-4.8,3.68,3.68,0,0,1,1.4-1.54,3.78,3.78,0,0,1,2-.54,4.21,4.21,0,0,1,1.3.2,3.32,3.32,0,0,1,1.08.58,3.13,3.13,0,0,1,.8.93A3.7,3.7,0,0,1,43.79,540.15Z"/><path class="cls-12" d="M48.08,546.17a3.15,3.15,0,0,1-1.66-.42,2.72,2.72,0,0,1-1.08-1.17,3.91,3.91,0,0,1-.37-1.77,4,4,0,0,1,.37-1.78,2.93,2.93,0,0,1,1.06-1.19,2.87,2.87,0,0,1,1.59-.43,3.31,3.31,0,0,1,1.08.18,2.66,2.66,0,0,1,.93.57,2.79,2.79,0,0,1,.65,1,4.25,4.25,0,0,1,.24,1.52v.45h-5.2v-1h4a2,2,0,0,0-.2-.89,1.64,1.64,0,0,0-.58-.62,1.6,1.6,0,0,0-.86-.22,1.66,1.66,0,0,0-.93.26,1.84,1.84,0,0,0-.62.68,2,2,0,0,0-.21.91v.75a2.34,2.34,0,0,0,.23,1.11,1.6,1.6,0,0,0,.65.71,1.92,1.92,0,0,0,1,.24,2,2,0,0,0,.66-.11,1.4,1.4,0,0,0,.51-.31,1.22,1.22,0,0,0,.33-.52l1.21.22a2.14,2.14,0,0,1-.52.93,2.53,2.53,0,0,1-.93.62A3.44,3.44,0,0,1,48.08,546.17Z"/><path class="cls-12" d="M53.58,542.15V546H52.31v-6.55h1.22v1.07h.08a1.87,1.87,0,0,1,.71-.84,2.21,2.21,0,0,1,1.22-.31,2.37,2.37,0,0,1,1.18.28,1.93,1.93,0,0,1,.78.82,3.08,3.08,0,0,1,.27,1.36V546H56.5v-4a1.62,1.62,0,0,0-.37-1.12,1.32,1.32,0,0,0-1-.4,1.57,1.57,0,0,0-.79.19,1.39,1.39,0,0,0-.54.56A1.89,1.89,0,0,0,53.58,542.15Z"/><path class="cls-12" d="M62.53,539.49v1H59v-1Zm-2.61-1.57h1.27v6.19a1.15,1.15,0,0,0,.11.56.54.54,0,0,0,.29.25A1,1,0,0,0,62,545l.27,0,.18,0,.23,1.06-.31.08a2.47,2.47,0,0,1-.52,0,2.09,2.09,0,0,1-.93-.18,1.61,1.61,0,0,1-.71-.58,1.76,1.76,0,0,1-.26-1Z"/><path class="cls-12" d="M63.94,546v-6.55h1.23v1h.07a1.59,1.59,0,0,1,.63-.83,1.76,1.76,0,0,1,1-.31h.28l.26,0v1.22l-.27,0-.39,0a1.79,1.79,0,0,0-.81.19,1.47,1.47,0,0,0-.55.53,1.4,1.4,0,0,0-.21.76v4Z"/><path class="cls-12" d="M71.07,546.17a3,3,0,0,1-1.61-.42,2.82,2.82,0,0,1-1.06-1.18,4.36,4.36,0,0,1,0-3.56,2.76,2.76,0,0,1,1.06-1.18,3,3,0,0,1,1.61-.42,3,3,0,0,1,1.6.42A2.79,2.79,0,0,1,73.74,541a4.36,4.36,0,0,1,0,3.56,2.84,2.84,0,0,1-1.07,1.18A3,3,0,0,1,71.07,546.17Zm0-1.07a1.53,1.53,0,0,0,1-.32,1.82,1.82,0,0,0,.58-.84,3.23,3.23,0,0,0,.19-1.15,3.27,3.27,0,0,0-.19-1.15,1.85,1.85,0,0,0-.58-.85,1.69,1.69,0,0,0-2,0,1.87,1.87,0,0,0-.59.85,3.51,3.51,0,0,0-.19,1.15,3.47,3.47,0,0,0,.19,1.15,1.84,1.84,0,0,0,.59.84A1.53,1.53,0,0,0,71.07,545.1Z"/><path class="cls-12" d="M79.56,546h-1.4l3.14-8.73h1.52L86,546h-1.4L82.1,538.9H82Zm.23-3.42h4.53v1.11H79.79Z"/><path class="cls-12" d="M89.77,546.17a3,3,0,0,1-1.63-.43,2.79,2.79,0,0,1-1-1.2,3.92,3.92,0,0,1-.37-1.75,4,4,0,0,1,.37-1.76,2.86,2.86,0,0,1,1.06-1.19,2.94,2.94,0,0,1,1.61-.43,3.13,3.13,0,0,1,1.33.27,2.35,2.35,0,0,1,1.37,1.92H91.22a1.48,1.48,0,0,0-.47-.79,1.37,1.37,0,0,0-1-.33,1.53,1.53,0,0,0-.93.28,1.77,1.77,0,0,0-.62.79,3,3,0,0,0-.22,1.21,3.32,3.32,0,0,0,.21,1.24,1.89,1.89,0,0,0,.62.81,1.73,1.73,0,0,0,1.6.15,1.45,1.45,0,0,0,.5-.39,1.51,1.51,0,0,0,.28-.6h1.24a2.45,2.45,0,0,1-.41,1.13,2.38,2.38,0,0,1-.93.78A3,3,0,0,1,89.77,546.17Z"/><path class="cls-12" d="M95.73,546.18a2.7,2.7,0,0,1-1.12-.23,1.9,1.9,0,0,1-.8-.68,1.93,1.93,0,0,1-.29-1.08,1.82,1.82,0,0,1,.21-.92,1.73,1.73,0,0,1,.58-.56,2.92,2.92,0,0,1,.81-.32,9.1,9.1,0,0,1,.91-.16l1-.11a1.35,1.35,0,0,0,.53-.15.36.36,0,0,0,.16-.33v0a1.17,1.17,0,0,0-.31-.87,1.3,1.3,0,0,0-.93-.3,1.6,1.6,0,0,0-1,.28,1.49,1.49,0,0,0-.51.63l-1.2-.27a2.27,2.27,0,0,1,.63-1,2.75,2.75,0,0,1,.94-.54,3.86,3.86,0,0,1,1.13-.16,4.3,4.3,0,0,1,.84.09,2.44,2.44,0,0,1,.82.33,1.83,1.83,0,0,1,.63.69,2.36,2.36,0,0,1,.25,1.17V546H97.72v-.9h0a2,2,0,0,1-.37.49,1.92,1.92,0,0,1-.64.39A2.38,2.38,0,0,1,95.73,546.18Zm.28-1a1.81,1.81,0,0,0,.9-.21,1.4,1.4,0,0,0,.58-.55,1.42,1.42,0,0,0,.2-.72v-.85a.62.62,0,0,1-.26.13,4.13,4.13,0,0,1-.44.1l-.49.07-.39,0a3.13,3.13,0,0,0-.67.16,1.08,1.08,0,0,0-.49.32.78.78,0,0,0-.18.54.82.82,0,0,0,.35.72A1.53,1.53,0,0,0,96,545.16Z"/><path class="cls-12" d="M103.11,546.16a2.5,2.5,0,0,1-1.41-.4,2.71,2.71,0,0,1-1-1.17,4.33,4.33,0,0,1-.35-1.81,4.19,4.19,0,0,1,.36-1.82,2.65,2.65,0,0,1,1-1.15,2.5,2.5,0,0,1,1.41-.4,2,2,0,0,1,1,.2,1.73,1.73,0,0,1,.58.47,5,5,0,0,1,.32.47h.08v-3.24h1.27V546h-1.24v-1H105a4.2,4.2,0,0,1-.33.48,1.89,1.89,0,0,1-.59.46A2,2,0,0,1,103.11,546.16Zm.28-1.08a1.49,1.49,0,0,0,.93-.29,1.85,1.85,0,0,0,.58-.82,3.41,3.41,0,0,0,.2-1.21,3.33,3.33,0,0,0-.2-1.19,1.77,1.77,0,0,0-.57-.8,1.7,1.7,0,0,0-1.9,0,1.88,1.88,0,0,0-.58.81,3.25,3.25,0,0,0-.19,1.16,3.11,3.11,0,0,0,.2,1.18,1.81,1.81,0,0,0,.58.83A1.43,1.43,0,0,0,103.39,545.08Z"/><path class="cls-12" d="M111,546.17a3.19,3.19,0,0,1-1.67-.42,2.7,2.7,0,0,1-1.07-1.17,3.91,3.91,0,0,1-.38-1.77,4,4,0,0,1,.38-1.78,2.79,2.79,0,0,1,1.06-1.19,2.87,2.87,0,0,1,1.59-.43,3.21,3.21,0,0,1,1.07.18,2.61,2.61,0,0,1,.94.57,2.93,2.93,0,0,1,.65,1,4.25,4.25,0,0,1,.24,1.52v.45h-5.21v-1h4a1.86,1.86,0,0,0-.21-.89,1.54,1.54,0,0,0-.57-.62,1.62,1.62,0,0,0-.86-.22,1.72,1.72,0,0,0-.94.26,1.81,1.81,0,0,0-.61.68,1.91,1.91,0,0,0-.22.91v.75a2.46,2.46,0,0,0,.23,1.11,1.68,1.68,0,0,0,.66.71,1.89,1.89,0,0,0,1,.24,2,2,0,0,0,.66-.11,1.32,1.32,0,0,0,.85-.83l1.2.22a2,2,0,0,1-.51.93,2.49,2.49,0,0,1-.94.62A3.38,3.38,0,0,1,111,546.17Zm.73-7.46-.87-1.15-.88,1.15h-1.15v-.07l1.5-1.8h1.06l1.5,1.8v.07Z"/><path class="cls-12" d="M115.21,546v-6.55h1.23v1.07h.08a1.72,1.72,0,0,1,.67-.85,2,2,0,0,1,1.11-.3,1.9,1.9,0,0,1,1.1.3,1.81,1.81,0,0,1,.66.85h.07a1.82,1.82,0,0,1,.74-.84,2.28,2.28,0,0,1,1.22-.31,2,2,0,0,1,1.46.55,2.33,2.33,0,0,1,.56,1.69V546h-1.27v-4.27a1.19,1.19,0,0,0-.36-1,1.31,1.31,0,0,0-.87-.29,1.23,1.23,0,0,0-1,.38,1.38,1.38,0,0,0-.34,1V546H119v-4.35a1.15,1.15,0,0,0-.33-.86,1.17,1.17,0,0,0-.87-.32,1.32,1.32,0,0,0-.67.18,1.56,1.56,0,0,0-.49.53,1.66,1.66,0,0,0-.18.78v4Z"/><path class="cls-12" d="M126.46,538.48a.8.8,0,0,1-.57-.22.75.75,0,0,1,0-1.08.85.85,0,0,1,1.14,0,.73.73,0,0,1,0,1.08A.8.8,0,0,1,126.46,538.48Zm-.64,7.56v-6.55h1.27V546Z"/><path class="cls-12" d="M131.56,546.17a3,3,0,0,1-1.63-.43,2.79,2.79,0,0,1-1.05-1.2,3.92,3.92,0,0,1-.37-1.75,4,4,0,0,1,.38-1.76,2.83,2.83,0,0,1,1.05-1.19,2.94,2.94,0,0,1,1.61-.43,3.13,3.13,0,0,1,1.33.27,2.35,2.35,0,0,1,1.37,1.92H133a1.48,1.48,0,0,0-.47-.79,1.37,1.37,0,0,0-1-.33,1.53,1.53,0,0,0-.93.28,1.77,1.77,0,0,0-.62.79,3,3,0,0,0-.22,1.21A3.12,3.12,0,0,0,130,544a1.8,1.8,0,0,0,.61.81,1.73,1.73,0,0,0,1.6.15,1.36,1.36,0,0,0,.5-.39,1.51,1.51,0,0,0,.28-.6h1.24a2.45,2.45,0,0,1-.41,1.13,2.38,2.38,0,0,1-.93.78A3,3,0,0,1,131.56,546.17Z"/><path class="cls-12" d="M138.37,546.17a3,3,0,0,1-1.6-.42,2.91,2.91,0,0,1-1.07-1.18,4.36,4.36,0,0,1,0-3.56,2.85,2.85,0,0,1,1.07-1.18,3.28,3.28,0,0,1,3.21,0,2.85,2.85,0,0,1,1.07,1.18,4.36,4.36,0,0,1,0,3.56,2.91,2.91,0,0,1-1.07,1.18A3,3,0,0,1,138.37,546.17Zm0-1.07a1.53,1.53,0,0,0,1-.32,1.9,1.9,0,0,0,.58-.84,3.23,3.23,0,0,0,.19-1.15,3.27,3.27,0,0,0-.19-1.15,1.93,1.93,0,0,0-.58-.85,1.53,1.53,0,0,0-1-.32,1.58,1.58,0,0,0-1,.32,1.93,1.93,0,0,0-.58.85,3.27,3.27,0,0,0-.19,1.15,3.23,3.23,0,0,0,.19,1.15,1.9,1.9,0,0,0,.58.84A1.58,1.58,0,0,0,138.38,545.1Z"/><path class="cls-12" d="M148.47,546.16a2.55,2.55,0,0,1-1.41-.4,2.69,2.69,0,0,1-1-1.17,4.88,4.88,0,0,1,0-3.63,2.72,2.72,0,0,1,1-1.15,2.55,2.55,0,0,1,1.41-.4,2,2,0,0,1,1,.2,1.64,1.64,0,0,1,.58.47,5.35,5.35,0,0,1,.33.47h.07v-3.24h1.28V546h-1.25v-1h-.1a4.2,4.2,0,0,1-.33.48,1.91,1.91,0,0,1-1.57.66Zm.29-1.08a1.54,1.54,0,0,0,.93-.29,1.94,1.94,0,0,0,.58-.82,3.42,3.42,0,0,0,.19-1.21,3.34,3.34,0,0,0-.19-1.19,1.72,1.72,0,0,0-.58-.8,1.69,1.69,0,0,0-1.89,0,1.8,1.8,0,0,0-.58.81,3.25,3.25,0,0,0-.19,1.16,3.32,3.32,0,0,0,.19,1.18,1.89,1.89,0,0,0,.58.83A1.48,1.48,0,0,0,148.76,545.08Z"/><path class="cls-12" d="M156.35,546.17a3.15,3.15,0,0,1-1.66-.42,2.72,2.72,0,0,1-1.08-1.17,3.91,3.91,0,0,1-.37-1.77,4,4,0,0,1,.37-1.78,2.84,2.84,0,0,1,2.65-1.62,3.31,3.31,0,0,1,1.08.18,2.57,2.57,0,0,1,.93.57,2.79,2.79,0,0,1,.65,1,4.25,4.25,0,0,1,.24,1.52v.45H154v-1h3.95a1.85,1.85,0,0,0-.2-.89,1.7,1.7,0,0,0-.57-.62,1.81,1.81,0,0,0-1.8,0,1.84,1.84,0,0,0-.62.68,2,2,0,0,0-.21.91v.75a2.46,2.46,0,0,0,.23,1.11,1.66,1.66,0,0,0,.65.71,1.92,1.92,0,0,0,1,.24A2,2,0,0,0,157,545a1.32,1.32,0,0,0,.51-.31,1.22,1.22,0,0,0,.33-.52l1.21.22a2.14,2.14,0,0,1-.52.93,2.53,2.53,0,0,1-.93.62A3.4,3.4,0,0,1,156.35,546.17Z"/><path class="cls-12" d="M171.11,540.15h-1.33a2.09,2.09,0,0,0-.28-.75,2,2,0,0,0-.52-.55,2,2,0,0,0-.67-.34,2.56,2.56,0,0,0-.79-.12,2.5,2.5,0,0,0-1.35.38,2.58,2.58,0,0,0-.94,1.11,4.91,4.91,0,0,0,0,3.59,2.53,2.53,0,0,0,.94,1.11,2.48,2.48,0,0,0,1.34.37,2.56,2.56,0,0,0,.79-.11,2.38,2.38,0,0,0,.68-.33,2.06,2.06,0,0,0,.51-.55,1.94,1.94,0,0,0,.29-.74h1.33a3.59,3.59,0,0,1-.41,1.18,3.17,3.17,0,0,1-.78.93,3.57,3.57,0,0,1-1.08.6,4.08,4.08,0,0,1-1.33.22,3.79,3.79,0,0,1-2-.54,3.7,3.7,0,0,1-1.4-1.55,5.9,5.9,0,0,1,0-4.8,3.74,3.74,0,0,1,1.4-1.54,3.79,3.79,0,0,1,2-.54,4.15,4.15,0,0,1,1.29.2,3.36,3.36,0,0,1,1.09.58,3.28,3.28,0,0,1,.8.93A3.69,3.69,0,0,1,171.11,540.15Z"/><path class="cls-12" d="M173.23,538.48a.8.8,0,0,1-.57-.22.73.73,0,0,1,0-1.08.85.85,0,0,1,1.14,0,.75.75,0,0,1,0,1.08A.8.8,0,0,1,173.23,538.48Zm-.65,7.56v-6.55h1.28V546Z"/><path class="cls-12" d="M178.39,546.17a3.15,3.15,0,0,1-1.66-.42,2.64,2.64,0,0,1-1.07-1.17,3.79,3.79,0,0,1-.38-1.77,3.91,3.91,0,0,1,.38-1.78,2.83,2.83,0,0,1,1.05-1.19,2.91,2.91,0,0,1,1.59-.43,3.31,3.31,0,0,1,1.08.18,2.66,2.66,0,0,1,.93.57,2.79,2.79,0,0,1,.65,1,4.25,4.25,0,0,1,.24,1.52v.45H176v-1H180a2,2,0,0,0-.2-.89,1.7,1.7,0,0,0-.57-.62,1.81,1.81,0,0,0-1.8,0,1.84,1.84,0,0,0-.62.68,2,2,0,0,0-.21.91v.75a2.34,2.34,0,0,0,.23,1.11,1.66,1.66,0,0,0,.65.71,1.92,1.92,0,0,0,1,.24,2,2,0,0,0,.66-.11,1.32,1.32,0,0,0,.51-.31,1.22,1.22,0,0,0,.33-.52l1.21.22a2.14,2.14,0,0,1-.52.93,2.53,2.53,0,0,1-.93.62A3.4,3.4,0,0,1,178.39,546.17Zm.74-7.46-.87-1.15-.88,1.15h-1.15v-.07l1.49-1.8h1.06l1.5,1.8v.07Z"/><path class="cls-12" d="M183.89,542.15V546h-1.27v-6.55h1.22v1.07h.08a1.87,1.87,0,0,1,.71-.84,2.22,2.22,0,0,1,1.23-.31,2.36,2.36,0,0,1,1.17.28,1.93,1.93,0,0,1,.78.82,3.08,3.08,0,0,1,.27,1.36V546h-1.27v-4a1.58,1.58,0,0,0-.37-1.12,1.32,1.32,0,0,0-1-.4,1.57,1.57,0,0,0-.79.19,1.46,1.46,0,0,0-.54.56A1.89,1.89,0,0,0,183.89,542.15Z"/><path class="cls-12" d="M192.54,546.17a3.07,3.07,0,0,1-1.63-.43,2.85,2.85,0,0,1-1-1.2,4.06,4.06,0,0,1-.37-1.75,4,4,0,0,1,.38-1.76,2.79,2.79,0,0,1,1.06-1.19,2.9,2.9,0,0,1,1.6-.43,3.13,3.13,0,0,1,1.33.27,2.4,2.4,0,0,1,.95.77,2.26,2.26,0,0,1,.42,1.15H194a1.46,1.46,0,0,0-.46-.79,1.42,1.42,0,0,0-1-.33,1.57,1.57,0,0,0-.93.28,1.85,1.85,0,0,0-.62.79,3.19,3.19,0,0,0-.22,1.21A3.12,3.12,0,0,0,191,544a1.87,1.87,0,0,0,.61.81,1.73,1.73,0,0,0,1.6.15,1.28,1.28,0,0,0,.5-.39,1.39,1.39,0,0,0,.28-.6h1.24a2.34,2.34,0,0,1-.41,1.13,2.42,2.42,0,0,1-.92.78A3.06,3.06,0,0,1,192.54,546.17Z"/><path class="cls-12" d="M197.25,538.48a.77.77,0,0,1-.57-.22.73.73,0,0,1,0-1.08.84.84,0,0,1,1.13,0,.73.73,0,0,1,0,1.08A.76.76,0,0,1,197.25,538.48ZM196.6,546v-6.55h1.28V546Z"/><path class="cls-12" d="M201.49,546.18a2.7,2.7,0,0,1-1.12-.23,1.9,1.9,0,0,1-.8-.68,1.93,1.93,0,0,1-.29-1.08,1.72,1.72,0,0,1,.22-.92,1.61,1.61,0,0,1,.57-.56,2.92,2.92,0,0,1,.81-.32,9.1,9.1,0,0,1,.91-.16l1-.11a1.35,1.35,0,0,0,.53-.15.37.37,0,0,0,.17-.33v0a1.18,1.18,0,0,0-.32-.87,1.3,1.3,0,0,0-.93-.3,1.62,1.62,0,0,0-1,.28,1.49,1.49,0,0,0-.51.63l-1.2-.27a2.27,2.27,0,0,1,.63-1,2.75,2.75,0,0,1,.94-.54,3.86,3.86,0,0,1,1.13-.16,4.22,4.22,0,0,1,.84.09,2.44,2.44,0,0,1,.82.33,1.94,1.94,0,0,1,.64.69,2.48,2.48,0,0,1,.24,1.17V546h-1.24v-.9h0a1.81,1.81,0,0,1-.37.49,1.92,1.92,0,0,1-.64.39A2.35,2.35,0,0,1,201.49,546.18Zm.28-1a1.85,1.85,0,0,0,.91-.21,1.44,1.44,0,0,0,.57-.55,1.42,1.42,0,0,0,.2-.72v-.85a.62.62,0,0,1-.26.13,4.13,4.13,0,0,1-.44.1l-.48.07-.4,0a3.29,3.29,0,0,0-.67.16,1.08,1.08,0,0,0-.49.32.78.78,0,0,0-.18.54.82.82,0,0,0,.35.72A1.53,1.53,0,0,0,201.77,545.16Z"/><path class="cls-12" d="M212.05,546.16a2.5,2.5,0,0,1-1.41-.4,2.71,2.71,0,0,1-1-1.17,4.33,4.33,0,0,1-.35-1.81,4.19,4.19,0,0,1,.36-1.82,2.65,2.65,0,0,1,1-1.15,2.5,2.5,0,0,1,1.41-.4,2,2,0,0,1,1,.2,1.73,1.73,0,0,1,.58.47,5,5,0,0,1,.32.47H214v-3.24h1.27V546h-1.24v-1h-.11a4.2,4.2,0,0,1-.33.48,1.89,1.89,0,0,1-.59.46A2,2,0,0,1,212.05,546.16Zm.28-1.08a1.49,1.49,0,0,0,.93-.29,1.78,1.78,0,0,0,.58-.82,3.41,3.41,0,0,0,.2-1.21,3.33,3.33,0,0,0-.2-1.19,1.77,1.77,0,0,0-.57-.8,1.7,1.7,0,0,0-1.9,0,1.88,1.88,0,0,0-.58.81,3.25,3.25,0,0,0-.19,1.16,3.32,3.32,0,0,0,.2,1.18,1.81,1.81,0,0,0,.58.83A1.43,1.43,0,0,0,212.33,545.08Z"/><path class="cls-12" d="M219,546.18a2.7,2.7,0,0,1-1.12-.23,1.9,1.9,0,0,1-.8-.68,1.93,1.93,0,0,1-.29-1.08,1.82,1.82,0,0,1,.21-.92,1.73,1.73,0,0,1,.58-.56,2.92,2.92,0,0,1,.81-.32,9.1,9.1,0,0,1,.91-.16l1-.11a1.35,1.35,0,0,0,.53-.15.36.36,0,0,0,.16-.33v0a1.17,1.17,0,0,0-.31-.87,1.3,1.3,0,0,0-.93-.3,1.6,1.6,0,0,0-1,.28,1.49,1.49,0,0,0-.51.63l-1.2-.27a2.35,2.35,0,0,1,.62-1,2.79,2.79,0,0,1,.95-.54,3.86,3.86,0,0,1,1.13-.16,4.12,4.12,0,0,1,.83.09,2.41,2.41,0,0,1,.83.33,1.83,1.83,0,0,1,.63.69,2.36,2.36,0,0,1,.25,1.17V546H221v-.9H221a2,2,0,0,1-.37.49,1.92,1.92,0,0,1-.64.39A2.38,2.38,0,0,1,219,546.18Zm.28-1a1.88,1.88,0,0,0,.91-.21,1.44,1.44,0,0,0,.57-.55,1.42,1.42,0,0,0,.2-.72v-.85a.62.62,0,0,1-.26.13,4.13,4.13,0,0,1-.44.1l-.49.07-.39,0a3.13,3.13,0,0,0-.67.16,1.08,1.08,0,0,0-.49.32.78.78,0,0,0-.18.54.82.82,0,0,0,.35.72A1.53,1.53,0,0,0,219.29,545.16Z"/><path class="cls-12" d="M234.47,540.15h-1.33a1.93,1.93,0,0,0-.29-.75,2.06,2.06,0,0,0-.51-.55,2.12,2.12,0,0,0-.67-.34,2.61,2.61,0,0,0-.79-.12,2.45,2.45,0,0,0-1.35.38,2.58,2.58,0,0,0-.94,1.11,4.91,4.91,0,0,0,0,3.59,2.53,2.53,0,0,0,.94,1.11,2.46,2.46,0,0,0,1.34.37,2.56,2.56,0,0,0,.79-.11,2.21,2.21,0,0,0,.67-.33,2.1,2.1,0,0,0,.52-.55,2.12,2.12,0,0,0,.29-.74h1.33a3.59,3.59,0,0,1-.41,1.18,3.34,3.34,0,0,1-1.87,1.53,4,4,0,0,1-1.33.22,3.82,3.82,0,0,1-2-.54,3.75,3.75,0,0,1-1.39-1.55,5.9,5.9,0,0,1,0-4.8,3.74,3.74,0,0,1,1.4-1.54,3.78,3.78,0,0,1,2-.54,4.17,4.17,0,0,1,1.3.2,3.32,3.32,0,0,1,1.08.58,3,3,0,0,1,.8.93A3.7,3.7,0,0,1,234.47,540.15Z"/><path class="cls-12" d="M238.7,546.17a3,3,0,0,1-1.61-.42,2.89,2.89,0,0,1-1.06-1.18,4.36,4.36,0,0,1,0-3.56,2.83,2.83,0,0,1,1.06-1.18,3.3,3.3,0,0,1,3.22,0,2.83,2.83,0,0,1,1.06,1.18,4.36,4.36,0,0,1,0,3.56,2.89,2.89,0,0,1-1.06,1.18A3,3,0,0,1,238.7,546.17Zm0-1.07a1.53,1.53,0,0,0,1-.32,1.82,1.82,0,0,0,.58-.84,3.23,3.23,0,0,0,.19-1.15,3.27,3.27,0,0,0-.19-1.15,1.85,1.85,0,0,0-.58-.85,1.69,1.69,0,0,0-2,0,2,2,0,0,0-.59.85,3.51,3.51,0,0,0-.18,1.15,3.47,3.47,0,0,0,.18,1.15,1.91,1.91,0,0,0,.59.84A1.53,1.53,0,0,0,238.7,545.1Z"/><path class="cls-12" d="M243.17,546v-6.55h1.22v1.07h.08a1.72,1.72,0,0,1,.67-.85,2,2,0,0,1,1.11-.3,2,2,0,0,1,1.11.3,1.85,1.85,0,0,1,.65.85h.07a1.9,1.9,0,0,1,.75-.84,2.28,2.28,0,0,1,1.22-.31,2,2,0,0,1,1.45.55,2.29,2.29,0,0,1,.57,1.69V546h-1.28v-4.27a1.19,1.19,0,0,0-.36-1,1.3,1.3,0,0,0-.86-.29,1.22,1.22,0,0,0-1,.38,1.39,1.39,0,0,0-.35,1V546H247v-4.35a1.12,1.12,0,0,0-1.19-1.18,1.27,1.27,0,0,0-.67.18,1.47,1.47,0,0,0-.49.53,1.67,1.67,0,0,0-.19.78v4Z"/><path class="cls-12" d="M253.77,548.49v-9H255v1.06h.1a5,5,0,0,1,.32-.47,1.84,1.84,0,0,1,.58-.47,2,2,0,0,1,1-.2,2.56,2.56,0,0,1,1.42.4,2.63,2.63,0,0,1,1,1.15,4.19,4.19,0,0,1,.36,1.82,4.33,4.33,0,0,1-.35,1.81,2.76,2.76,0,0,1-1,1.17,2.55,2.55,0,0,1-1.41.4,2,2,0,0,1-1-.2,1.89,1.89,0,0,1-.59-.46,4.2,4.2,0,0,1-.33-.48h-.07v3.47Zm1.25-5.73a3.41,3.41,0,0,0,.2,1.21,1.85,1.85,0,0,0,.58.82,1.49,1.49,0,0,0,.93.29,1.43,1.43,0,0,0,.95-.31,1.9,1.9,0,0,0,.59-.83,3.32,3.32,0,0,0,.19-1.18,3.25,3.25,0,0,0-.19-1.16,1.8,1.8,0,0,0-.58-.81,1.7,1.7,0,0,0-1.9,0,1.77,1.77,0,0,0-.57.8A3.33,3.33,0,0,0,255,542.76Z"/><path class="cls-12" d="M265.32,543.32v-3.83h1.28V546h-1.25V544.9h-.07a2,2,0,0,1-1.95,1.22,2.17,2.17,0,0,1-1.12-.28,1.92,1.92,0,0,1-.76-.83,3.05,3.05,0,0,1-.27-1.36v-4.16h1.27v4a1.54,1.54,0,0,0,.37,1.07,1.28,1.28,0,0,0,1,.39,1.56,1.56,0,0,0,.71-.18,1.52,1.52,0,0,0,.59-.54A1.56,1.56,0,0,0,265.32,543.32Z"/><path class="cls-12" d="M271.37,539.49v1h-3.58v-1Zm-2.62-1.57H270v6.19a1.17,1.17,0,0,0,.1.56.58.58,0,0,0,.29.25,1,1,0,0,0,.39.07l.27,0,.18,0,.23,1.06-.32.08a2.44,2.44,0,0,1-.51,0,2.11,2.11,0,0,1-.94-.18,1.58,1.58,0,0,1-.7-.58,1.69,1.69,0,0,1-.27-1Z"/><path class="cls-12" d="M274.68,546.18a2.75,2.75,0,0,1-1.13-.23,1.83,1.83,0,0,1-1.08-1.76,1.82,1.82,0,0,1,.21-.92,1.61,1.61,0,0,1,.57-.56,3.18,3.18,0,0,1,.81-.32,9.3,9.3,0,0,1,.92-.16l.95-.11a1.35,1.35,0,0,0,.53-.15.37.37,0,0,0,.17-.33v0a1.17,1.17,0,0,0-.31-.87,1.31,1.31,0,0,0-.94-.3,1.64,1.64,0,0,0-1,.28,1.66,1.66,0,0,0-.51.63l-1.19-.27a2.35,2.35,0,0,1,.62-1,2.7,2.7,0,0,1,.95-.54,3.81,3.81,0,0,1,1.13-.16,4.12,4.12,0,0,1,.83.09,2.58,2.58,0,0,1,.83.33,1.92,1.92,0,0,1,.63.69,2.36,2.36,0,0,1,.25,1.17V546h-1.25v-.9h-.05a1.62,1.62,0,0,1-.37.49,1.87,1.87,0,0,1-.63.39A2.38,2.38,0,0,1,274.68,546.18Zm.27-1a1.83,1.83,0,0,0,.91-.21,1.54,1.54,0,0,0,.58-.55,1.41,1.41,0,0,0,.19-.72v-.85a.56.56,0,0,1-.26.13,3.64,3.64,0,0,1-.44.1l-.48.07-.39,0a3.23,3.23,0,0,0-.68.16,1.1,1.1,0,0,0-.48.32.79.79,0,0,0-.19.54.82.82,0,0,0,.35.72A1.55,1.55,0,0,0,275,545.16Z"/><path class="cls-12" d="M282.36,546.17a3,3,0,0,1-1.63-.43,2.79,2.79,0,0,1-1.05-1.2,3.92,3.92,0,0,1-.37-1.75,4,4,0,0,1,.38-1.76,2.83,2.83,0,0,1,1.05-1.19,2.94,2.94,0,0,1,1.61-.43,3.13,3.13,0,0,1,1.33.27,2.35,2.35,0,0,1,1.37,1.92h-1.24a1.48,1.48,0,0,0-.47-.79,1.37,1.37,0,0,0-1-.33,1.53,1.53,0,0,0-.93.28,1.77,1.77,0,0,0-.62.79,3,3,0,0,0-.22,1.21,3.32,3.32,0,0,0,.21,1.24,1.89,1.89,0,0,0,.62.81,1.73,1.73,0,0,0,1.6.15,1.36,1.36,0,0,0,.5-.39,1.51,1.51,0,0,0,.28-.6h1.24a2.45,2.45,0,0,1-.41,1.13,2.38,2.38,0,0,1-.93.78A3,3,0,0,1,282.36,546.17Zm-.46-.17h.84l-.07.35a1.34,1.34,0,0,1,.65.3.91.91,0,0,1,.27.72,1.07,1.07,0,0,1-.49.93,2.48,2.48,0,0,1-1.45.36l0-.71a1.63,1.63,0,0,0,.72-.13.42.42,0,0,0,.28-.41.41.41,0,0,0-.21-.4,1.82,1.82,0,0,0-.68-.16Z"/><path class="cls-12" d="M288.32,546.18a2.7,2.7,0,0,1-1.12-.23,1.9,1.9,0,0,1-.8-.68,1.93,1.93,0,0,1-.29-1.08,1.82,1.82,0,0,1,.21-.92,1.73,1.73,0,0,1,.58-.56,2.92,2.92,0,0,1,.81-.32,9.1,9.1,0,0,1,.91-.16l1-.11a1.35,1.35,0,0,0,.53-.15.36.36,0,0,0,.16-.33v0a1.17,1.17,0,0,0-.31-.87,1.3,1.3,0,0,0-.93-.3,1.6,1.6,0,0,0-1,.28,1.49,1.49,0,0,0-.51.63l-1.2-.27a2.27,2.27,0,0,1,.63-1,2.75,2.75,0,0,1,.94-.54,3.86,3.86,0,0,1,1.13-.16,4.3,4.3,0,0,1,.84.09,2.44,2.44,0,0,1,.82.33,1.94,1.94,0,0,1,.64.69,2.48,2.48,0,0,1,.24,1.17V546h-1.24v-.9h-.05a1.81,1.81,0,0,1-.37.49,1.92,1.92,0,0,1-.64.39A2.38,2.38,0,0,1,288.32,546.18Zm-.52-7.48-.86,0a1.64,1.64,0,0,1,.38-1.13,1.24,1.24,0,0,1,.95-.42,1.06,1.06,0,0,1,.45.09,2.18,2.18,0,0,1,.37.2l.35.2a.79.79,0,0,0,.38.09.53.53,0,0,0,.41-.19.73.73,0,0,0,.15-.46l.84.05a1.6,1.6,0,0,1-.38,1.12,1.34,1.34,0,0,1-1.45.32,2,2,0,0,1-.35-.2,3.28,3.28,0,0,0-.31-.2.8.8,0,0,0-.39-.09.47.47,0,0,0-.39.19A.69.69,0,0,0,287.8,538.7Zm.8,6.46a1.88,1.88,0,0,0,.91-.21,1.44,1.44,0,0,0,.57-.55,1.42,1.42,0,0,0,.2-.72v-.85a.62.62,0,0,1-.26.13,4.13,4.13,0,0,1-.44.1l-.49.07-.39,0a3.13,3.13,0,0,0-.67.16,1.08,1.08,0,0,0-.49.32.78.78,0,0,0-.18.54.82.82,0,0,0,.35.72A1.53,1.53,0,0,0,288.6,545.16Z"/><path class="cls-12" d="M296,546.17a3,3,0,0,1-1.61-.42,2.91,2.91,0,0,1-1.07-1.18,4.36,4.36,0,0,1,0-3.56,2.85,2.85,0,0,1,1.07-1.18,3,3,0,0,1,1.61-.42,3,3,0,0,1,1.6.42,2.79,2.79,0,0,1,1.07,1.18,4.36,4.36,0,0,1,0,3.56,2.84,2.84,0,0,1-1.07,1.18A3,3,0,0,1,296,546.17Zm0-1.07a1.53,1.53,0,0,0,1-.32,1.9,1.9,0,0,0,.58-.84,3.23,3.23,0,0,0,.19-1.15,3.27,3.27,0,0,0-.19-1.15,1.93,1.93,0,0,0-.58-.85,1.69,1.69,0,0,0-2,0,1.87,1.87,0,0,0-.59.85,3.27,3.27,0,0,0-.19,1.15,3.23,3.23,0,0,0,.19,1.15,1.84,1.84,0,0,0,.59.84A1.53,1.53,0,0,0,296,545.1Z"/><path class="cls-12" d="M308.8,541.12v1.11h-6v-1.11Z"/><path class="cls-12" d="M313.67,546h-1.39l3.14-8.73h1.52l3.14,8.73h-1.4l-2.47-7.14h-.07Zm.24-3.42h4.53v1.11h-4.53Z"/><path class="cls-12" d="M322.51,537.31V546h-1.28v-8.73Z"/><path class="cls-12" d="M326.12,546.18A2.7,2.7,0,0,1,325,546a1.9,1.9,0,0,1-.8-.68,1.93,1.93,0,0,1-.29-1.08,1.72,1.72,0,0,1,.22-.92,1.61,1.61,0,0,1,.57-.56,2.92,2.92,0,0,1,.81-.32,9.1,9.1,0,0,1,.91-.16l1-.11a1.35,1.35,0,0,0,.53-.15.37.37,0,0,0,.17-.33v0a1.18,1.18,0,0,0-.32-.87,1.3,1.3,0,0,0-.93-.3,1.62,1.62,0,0,0-1,.28,1.49,1.49,0,0,0-.51.63l-1.2-.27a2.37,2.37,0,0,1,.63-1,2.7,2.7,0,0,1,.95-.54,3.75,3.75,0,0,1,1.12-.16,4.22,4.22,0,0,1,.84.09,2.44,2.44,0,0,1,.82.33,1.94,1.94,0,0,1,.64.69,2.48,2.48,0,0,1,.25,1.17V546h-1.25v-.9h-.05a1.81,1.81,0,0,1-.37.49,1.92,1.92,0,0,1-.64.39A2.35,2.35,0,0,1,326.12,546.18Zm.28-1a1.85,1.85,0,0,0,.91-.21,1.44,1.44,0,0,0,.57-.55,1.42,1.42,0,0,0,.2-.72v-.85a.62.62,0,0,1-.26.13,4.13,4.13,0,0,1-.44.1l-.48.07-.4,0a3.29,3.29,0,0,0-.67.16,1.08,1.08,0,0,0-.49.32.78.78,0,0,0-.18.54.82.82,0,0,0,.35.72A1.53,1.53,0,0,0,326.4,545.16Z"/><path class="cls-12" d="M332.32,542.15V546h-1.27v-6.55h1.22v1.07h.09a1.85,1.85,0,0,1,.7-.84,2.21,2.21,0,0,1,1.22-.31,2.37,2.37,0,0,1,1.18.28,1.93,1.93,0,0,1,.78.82,3.08,3.08,0,0,1,.27,1.36V546h-1.27v-4a1.58,1.58,0,0,0-.37-1.12,1.32,1.32,0,0,0-1-.4,1.57,1.57,0,0,0-.79.19,1.53,1.53,0,0,0-.54.56A1.89,1.89,0,0,0,332.32,542.15Z"/><path class="cls-12" d="M341.07,538.44v-1.13h6.75v1.13H345.1V546h-1.31v-7.6Z"/><path class="cls-12" d="M352.47,543.32v-3.83h1.28V546h-1.26V544.9h-.06a2.06,2.06,0,0,1-2,1.22,2.13,2.13,0,0,1-1.11-.28,1.81,1.81,0,0,1-.76-.83,2.92,2.92,0,0,1-.28-1.36v-4.16h1.28v4a1.5,1.5,0,0,0,.37,1.07,1.24,1.24,0,0,0,1,.39,1.53,1.53,0,0,0,.71-.18,1.55,1.55,0,0,0,.6-.54A1.72,1.72,0,0,0,352.47,543.32Z"/><path class="cls-12" d="M355.45,546v-6.55h1.24v1h.07a1.54,1.54,0,0,1,.63-.83,1.74,1.74,0,0,1,1-.31h.28l.26,0v1.22l-.27,0-.4,0a1.72,1.72,0,0,0-.8.19,1.58,1.58,0,0,0-.56.53,1.49,1.49,0,0,0-.2.76v4Z"/><path class="cls-12" d="M360.71,538.48a.8.8,0,0,1-.57-.22.73.73,0,0,1,0-1.08.85.85,0,0,1,1.14,0,.73.73,0,0,1,0,1.08A.8.8,0,0,1,360.71,538.48Zm-.64,7.56v-6.55h1.27V546Z"/><path class="cls-12" d="M364.33,542.15V546h-1.28v-6.55h1.23v1.07h.08a1.81,1.81,0,0,1,.71-.84,2.19,2.19,0,0,1,1.22-.31,2.36,2.36,0,0,1,1.17.28,1.93,1.93,0,0,1,.78.82,3.08,3.08,0,0,1,.28,1.36V546h-1.28v-4a1.58,1.58,0,0,0-.37-1.12,1.32,1.32,0,0,0-1-.4,1.53,1.53,0,0,0-.78.19,1.39,1.39,0,0,0-.54.56A1.77,1.77,0,0,0,364.33,542.15Z"/><path class="cls-12" d="M373,548.63a3.89,3.89,0,0,1-1.34-.21,2.47,2.47,0,0,1-.91-.54,2.27,2.27,0,0,1-.53-.73l1.1-.46a2.07,2.07,0,0,0,.31.4,1.6,1.6,0,0,0,.52.36,2.16,2.16,0,0,0,.87.15,2,2,0,0,0,1.2-.35,1.33,1.33,0,0,0,.47-1.12v-1.29h-.08a3.44,3.44,0,0,1-.33.47,1.82,1.82,0,0,1-.59.44,2.14,2.14,0,0,1-1,.19,2.6,2.6,0,0,1-1.39-.37,2.51,2.51,0,0,1-1-1.07,3.92,3.92,0,0,1-.35-1.76,4.08,4.08,0,0,1,.35-1.79,2.71,2.71,0,0,1,1-1.15,2.58,2.58,0,0,1,1.41-.39,2,2,0,0,1,1,.2,1.78,1.78,0,0,1,.59.47,5.35,5.35,0,0,1,.33.47h.09v-1.06h1.25v6.69a2.33,2.33,0,0,1-.39,1.39,2.43,2.43,0,0,1-1.06.8A4.23,4.23,0,0,1,373,548.63Zm0-3.75a1.53,1.53,0,0,0,1.51-1,2.9,2.9,0,0,0,.2-1.16,3,3,0,0,0-.2-1.16,1.74,1.74,0,0,0-.57-.79,1.52,1.52,0,0,0-.94-.28,1.59,1.59,0,0,0-1,.29,1.78,1.78,0,0,0-.57.81,3.11,3.11,0,0,0-.2,1.13,3,3,0,0,0,.2,1.13,1.65,1.65,0,0,0,.58.76A1.61,1.61,0,0,0,373,544.88Z"/><path class="cls-12" d="M36.54,560.44v-8.73H42v1.13H37.86v2.66h3.7v1.13h-3.7v3.81Z"/><path class="cls-12" d="M45.35,560.58a2.75,2.75,0,0,1-1.13-.23,1.86,1.86,0,0,1-1.09-1.76,1.75,1.75,0,0,1,.22-.91,1.56,1.56,0,0,1,.57-.57,3,3,0,0,1,.81-.32c.3-.07.61-.12.91-.16l1-.11a1.35,1.35,0,0,0,.53-.15.37.37,0,0,0,.17-.33v0a1.21,1.21,0,0,0-.31-.87,1.31,1.31,0,0,0-.94-.3,1.62,1.62,0,0,0-1,.28,1.66,1.66,0,0,0-.51.63l-1.19-.27a2.35,2.35,0,0,1,.62-1,2.54,2.54,0,0,1,.95-.53,3.52,3.52,0,0,1,1.13-.17,4.12,4.12,0,0,1,.83.09,2.58,2.58,0,0,1,.83.33,2,2,0,0,1,.63.7,2.43,2.43,0,0,1,.25,1.16v4.35H47.33v-.9h0a1.62,1.62,0,0,1-.37.49,1.87,1.87,0,0,1-.63.39A2.38,2.38,0,0,1,45.35,560.58Zm.27-1a1.83,1.83,0,0,0,.91-.21,1.44,1.44,0,0,0,.57-.55,1.33,1.33,0,0,0,.2-.72v-.85a.56.56,0,0,1-.26.13,4.13,4.13,0,0,1-.44.1l-.48.07-.39.05a3.23,3.23,0,0,0-.68.16,1.2,1.2,0,0,0-.49.32.78.78,0,0,0-.18.54.82.82,0,0,0,.35.72A1.55,1.55,0,0,0,45.62,559.56Z"/><path class="cls-12" d="M53,560.57a3,3,0,0,1-1.63-.43,2.79,2.79,0,0,1-1-1.2,3.92,3.92,0,0,1-.37-1.75,4,4,0,0,1,.37-1.76,2.86,2.86,0,0,1,1.06-1.19,2.91,2.91,0,0,1,1.61-.43,3.16,3.16,0,0,1,1.33.27A2.34,2.34,0,0,1,55.72,556H54.48a1.47,1.47,0,0,0-.47-.8,1.37,1.37,0,0,0-1-.33,1.53,1.53,0,0,0-.93.28,1.76,1.76,0,0,0-.62.79,3,3,0,0,0-.22,1.21,3.32,3.32,0,0,0,.21,1.24,1.83,1.83,0,0,0,.62.81,1.56,1.56,0,0,0,.94.28,1.59,1.59,0,0,0,.66-.13,1.45,1.45,0,0,0,.5-.39,1.66,1.66,0,0,0,.28-.6h1.24a2.56,2.56,0,0,1-.41,1.13,2.38,2.38,0,0,1-.93.78A3,3,0,0,1,53,560.57Z"/><path class="cls-12" d="M61.23,557.72v-3.83h1.28v6.55H61.26V559.3h-.07a2,2,0,0,1-2,1.22,2.13,2.13,0,0,1-1.11-.28,1.86,1.86,0,0,1-.76-.83,3,3,0,0,1-.27-1.35v-4.17h1.27v4a1.5,1.5,0,0,0,.37,1.07,1.28,1.28,0,0,0,1,.39,1.59,1.59,0,0,0,.71-.18,1.52,1.52,0,0,0,.82-1.46Z"/><path class="cls-12" d="M65.49,551.71v8.73H64.22v-8.73Z"/><path class="cls-12" d="M69.66,560.56a2.56,2.56,0,0,1-1.42-.4,2.76,2.76,0,0,1-1-1.17,4.33,4.33,0,0,1-.35-1.81,4.19,4.19,0,0,1,.36-1.82,2.59,2.59,0,0,1,1-1.15,2.5,2.5,0,0,1,1.41-.4,2,2,0,0,1,1,.2,1.73,1.73,0,0,1,.58.47c.13.18.24.34.32.47h.08v-3.24H72.9v8.73H71.66v-1h-.11a4.2,4.2,0,0,1-.33.48,1.89,1.89,0,0,1-.59.46A2,2,0,0,1,69.66,560.56Zm.28-1.08a1.54,1.54,0,0,0,.93-.29,1.85,1.85,0,0,0,.58-.82,3.41,3.41,0,0,0,.2-1.21,3.33,3.33,0,0,0-.2-1.19,1.77,1.77,0,0,0-.57-.8,1.54,1.54,0,0,0-.94-.28,1.51,1.51,0,0,0-1,.3,1.8,1.8,0,0,0-.58.81,3.25,3.25,0,0,0-.19,1.16,3.32,3.32,0,0,0,.19,1.18,1.83,1.83,0,0,0,.59.83A1.43,1.43,0,0,0,69.94,559.48Z"/><path class="cls-12" d="M76.62,560.58a2.7,2.7,0,0,1-1.12-.23,1.9,1.9,0,0,1-.8-.68,1.93,1.93,0,0,1-.29-1.08,1.75,1.75,0,0,1,.21-.91,1.59,1.59,0,0,1,.58-.57,2.92,2.92,0,0,1,.81-.32,8.63,8.63,0,0,1,.91-.16l1-.11a1.41,1.41,0,0,0,.54-.15.36.36,0,0,0,.16-.33v0a1.17,1.17,0,0,0-.31-.87,1.3,1.3,0,0,0-.93-.3,1.6,1.6,0,0,0-1,.28,1.49,1.49,0,0,0-.51.63l-1.2-.27a2.35,2.35,0,0,1,.62-1,2.62,2.62,0,0,1,1-.53,3.56,3.56,0,0,1,1.13-.17,4.12,4.12,0,0,1,.83.09,2.49,2.49,0,0,1,.83.33,1.79,1.79,0,0,1,.63.7,2.32,2.32,0,0,1,.25,1.16v4.35H78.61v-.9h-.06a1.62,1.62,0,0,1-.37.49,1.78,1.78,0,0,1-.63.39A2.38,2.38,0,0,1,76.62,560.58Zm.28-1a1.81,1.81,0,0,0,.9-.21,1.47,1.47,0,0,0,.58-.55,1.42,1.42,0,0,0,.2-.72v-.85a.67.67,0,0,1-.27.13,3.24,3.24,0,0,1-.44.1l-.48.07-.39.05a3.39,3.39,0,0,0-.68.16,1.1,1.1,0,0,0-.48.32.78.78,0,0,0-.18.54.8.8,0,0,0,.35.72A1.53,1.53,0,0,0,76.9,559.56Z"/><path class="cls-12" d="M84,560.56a2.56,2.56,0,0,1-1.42-.4,2.76,2.76,0,0,1-1-1.17,4.33,4.33,0,0,1-.35-1.81,4.19,4.19,0,0,1,.36-1.82,2.59,2.59,0,0,1,1-1.15,2.5,2.5,0,0,1,1.41-.4,2,2,0,0,1,1,.2,1.73,1.73,0,0,1,.58.47c.13.18.24.34.32.47H86v-3.24h1.27v8.73H86v-1h-.11a4.2,4.2,0,0,1-.33.48,1.89,1.89,0,0,1-.59.46A2,2,0,0,1,84,560.56Zm.28-1.08a1.54,1.54,0,0,0,.93-.29,1.85,1.85,0,0,0,.58-.82,3.41,3.41,0,0,0,.2-1.21,3.33,3.33,0,0,0-.2-1.19,1.77,1.77,0,0,0-.57-.8,1.54,1.54,0,0,0-.94-.28,1.49,1.49,0,0,0-1,.3,1.8,1.8,0,0,0-.58.81,3.25,3.25,0,0,0-.19,1.16,3.32,3.32,0,0,0,.19,1.18,1.83,1.83,0,0,0,.59.83A1.43,1.43,0,0,0,84.28,559.48Z"/><path class="cls-12" d="M91.88,560.57a3.19,3.19,0,0,1-1.67-.42A2.7,2.7,0,0,1,89.14,559a3.91,3.91,0,0,1-.38-1.77,4,4,0,0,1,.38-1.78,2.79,2.79,0,0,1,1.06-1.19,2.87,2.87,0,0,1,1.59-.43,3.25,3.25,0,0,1,1.07.18,2.49,2.49,0,0,1,.93.57,2.81,2.81,0,0,1,.66,1,4.27,4.27,0,0,1,.23,1.52v.45h-5.2v-1h4a1.86,1.86,0,0,0-.21-.89,1.62,1.62,0,0,0-.57-.62,1.66,1.66,0,0,0-.87-.22,1.69,1.69,0,0,0-.93.26,1.73,1.73,0,0,0-.61.68,1.91,1.91,0,0,0-.22.91v.75a2.46,2.46,0,0,0,.23,1.11,1.66,1.66,0,0,0,.65.71,2,2,0,0,0,1,.24,2,2,0,0,0,.66-.11,1.32,1.32,0,0,0,.85-.83l1.2.22a2.12,2.12,0,0,1-.51.93,2.49,2.49,0,0,1-.94.62A3.38,3.38,0,0,1,91.88,560.57Z"/><path class="cls-12" d="M101.73,560.56a2.5,2.5,0,0,1-1.41-.4,2.69,2.69,0,0,1-1-1.17,4.88,4.88,0,0,1,0-3.63,2.72,2.72,0,0,1,1-1.15,2.5,2.5,0,0,1,1.41-.4,2,2,0,0,1,1,.2,1.73,1.73,0,0,1,.58.47,3.59,3.59,0,0,1,.32.47h.08v-3.24H105v8.73h-1.25v-1h-.11a2.6,2.6,0,0,1-.33.48,1.89,1.89,0,0,1-.59.46A2,2,0,0,1,101.73,560.56Zm.28-1.08a1.55,1.55,0,0,0,.94-.29,1.84,1.84,0,0,0,.57-.82,3.2,3.2,0,0,0,.2-1.21,3.34,3.34,0,0,0-.19-1.19,1.79,1.79,0,0,0-.58-.8,1.5,1.5,0,0,0-.94-.28,1.53,1.53,0,0,0-1,.3,1.86,1.86,0,0,0-.57.81,3.24,3.24,0,0,0-.2,1.16,3.32,3.32,0,0,0,.2,1.18,1.81,1.81,0,0,0,.58.83A1.47,1.47,0,0,0,102,559.48Z"/><path class="cls-12" d="M109.61,560.57a3.15,3.15,0,0,1-1.66-.42,2.67,2.67,0,0,1-1.08-1.17,3.91,3.91,0,0,1-.37-1.77,4,4,0,0,1,.37-1.78,2.84,2.84,0,0,1,2.65-1.62,3.31,3.31,0,0,1,1.08.18,2.66,2.66,0,0,1,.93.57,2.93,2.93,0,0,1,.65,1,4.25,4.25,0,0,1,.24,1.52v.45h-5.2v-1h4a2,2,0,0,0-.2-.89,1.64,1.64,0,0,0-.58-.62,1.6,1.6,0,0,0-.86-.22,1.66,1.66,0,0,0-.93.26,1.76,1.76,0,0,0-.62.68,2,2,0,0,0-.21.91v.75a2.34,2.34,0,0,0,.23,1.11,1.6,1.6,0,0,0,.65.71,1.91,1.91,0,0,0,1,.24,1.94,1.94,0,0,0,.66-.11,1.36,1.36,0,0,0,.52-.31,1.22,1.22,0,0,0,.33-.52l1.21.22a2.14,2.14,0,0,1-.52.93,2.53,2.53,0,0,1-.93.62A3.44,3.44,0,0,1,109.61,560.57Z"/><path class="cls-12" d="M124.37,554.55H123a1.93,1.93,0,0,0-.29-.75,2.06,2.06,0,0,0-.51-.55,2,2,0,0,0-.67-.34,2.61,2.61,0,0,0-.79-.12,2.45,2.45,0,0,0-1.35.38,2.58,2.58,0,0,0-.94,1.11,4.91,4.91,0,0,0,0,3.59,2.53,2.53,0,0,0,.94,1.11,2.48,2.48,0,0,0,1.34.37,2.56,2.56,0,0,0,.79-.11,2,2,0,0,0,.67-.33,2,2,0,0,0,.52-.55,2.12,2.12,0,0,0,.29-.74h1.33a3.59,3.59,0,0,1-.41,1.18,3.34,3.34,0,0,1-1.87,1.53,4,4,0,0,1-1.33.22,3.82,3.82,0,0,1-2-.54,3.75,3.75,0,0,1-1.39-1.55,5.9,5.9,0,0,1,0-4.8,3.74,3.74,0,0,1,1.4-1.54,3.78,3.78,0,0,1,2-.54,4.17,4.17,0,0,1,1.3.2,3.47,3.47,0,0,1,1.09.58,3.1,3.1,0,0,1,.79.93A3.7,3.7,0,0,1,124.37,554.55Z"/><path class="cls-12" d="M126.49,552.88a.77.77,0,0,1-.57-.22.73.73,0,0,1,0-1.08.84.84,0,0,1,1.13,0,.73.73,0,0,1,0,1.08A.76.76,0,0,1,126.49,552.88Zm-.65,7.56v-6.55h1.28v6.55Z"/><path class="cls-12" d="M131.65,560.57a3.15,3.15,0,0,1-1.66-.42,2.67,2.67,0,0,1-1.08-1.17,3.91,3.91,0,0,1-.37-1.77,4,4,0,0,1,.37-1.78,2.84,2.84,0,0,1,2.65-1.62,3.31,3.31,0,0,1,1.08.18,2.66,2.66,0,0,1,.93.57,2.93,2.93,0,0,1,.65,1,4.25,4.25,0,0,1,.24,1.52v.45h-5.2v-1h4a2,2,0,0,0-.2-.89,1.64,1.64,0,0,0-.58-.62,1.6,1.6,0,0,0-.86-.22,1.72,1.72,0,0,0-.94.26,1.81,1.81,0,0,0-.61.68,2,2,0,0,0-.21.91v.75a2.34,2.34,0,0,0,.23,1.11,1.6,1.6,0,0,0,.65.71,1.91,1.91,0,0,0,1,.24,1.94,1.94,0,0,0,.66-.11,1.36,1.36,0,0,0,.52-.31,1.33,1.33,0,0,0,.33-.52l1.21.22a2.14,2.14,0,0,1-.52.93,2.53,2.53,0,0,1-.93.62A3.44,3.44,0,0,1,131.65,560.57Zm.74-7.46-.88-1.14-.87,1.14h-1.15V553l1.49-1.8H132l1.5,1.8v.07Z"/><path class="cls-12" d="M137.15,556.55v3.89h-1.27v-6.55h1.22V555h.08a1.87,1.87,0,0,1,.71-.84,2.19,2.19,0,0,1,1.22-.31,2.3,2.3,0,0,1,1.17.28,1.82,1.82,0,0,1,.78.82,2.94,2.94,0,0,1,.28,1.36v4.17h-1.27v-4a1.62,1.62,0,0,0-.37-1.12,1.32,1.32,0,0,0-1-.4,1.57,1.57,0,0,0-.79.19,1.39,1.39,0,0,0-.54.56A1.89,1.89,0,0,0,137.15,556.55Z"/><path class="cls-12" d="M145.8,560.57a3,3,0,0,1-1.63-.43,2.79,2.79,0,0,1-1-1.2,3.92,3.92,0,0,1-.37-1.75,4,4,0,0,1,.38-1.76,2.83,2.83,0,0,1,1.05-1.19,2.94,2.94,0,0,1,1.61-.43,3.13,3.13,0,0,1,1.33.27,2.37,2.37,0,0,1,.94.77,2.27,2.27,0,0,1,.43,1.16h-1.24a1.47,1.47,0,0,0-.47-.8,1.37,1.37,0,0,0-1-.33,1.57,1.57,0,0,0-.93.28,1.83,1.83,0,0,0-.62.79,3,3,0,0,0-.22,1.21,3.12,3.12,0,0,0,.22,1.24,1.82,1.82,0,0,0,.61.81,1.73,1.73,0,0,0,1.6.15,1.36,1.36,0,0,0,.5-.39,1.51,1.51,0,0,0,.28-.6h1.24a2.34,2.34,0,0,1-.41,1.13,2.42,2.42,0,0,1-.92.78A3.06,3.06,0,0,1,145.8,560.57Z"/><path class="cls-12" d="M150.5,552.88a.8.8,0,0,1-.57-.22.75.75,0,0,1,0-1.08.85.85,0,0,1,1.14,0,.73.73,0,0,1,0,1.08A.8.8,0,0,1,150.5,552.88Zm-.64,7.56v-6.55h1.27v6.55Z"/><path class="cls-12" d="M154.75,560.58a2.7,2.7,0,0,1-1.12-.23,1.9,1.9,0,0,1-.8-.68,1.93,1.93,0,0,1-.29-1.08,1.75,1.75,0,0,1,.21-.91,1.67,1.67,0,0,1,.58-.57,2.92,2.92,0,0,1,.81-.32,9.1,9.1,0,0,1,.91-.16l.95-.11a1.35,1.35,0,0,0,.54-.15.36.36,0,0,0,.16-.33v0a1.17,1.17,0,0,0-.31-.87,1.3,1.3,0,0,0-.93-.3,1.6,1.6,0,0,0-1,.28,1.49,1.49,0,0,0-.51.63l-1.2-.27a2.35,2.35,0,0,1,.62-1,2.62,2.62,0,0,1,.95-.53,3.56,3.56,0,0,1,1.13-.17,4.3,4.3,0,0,1,.84.09,2.44,2.44,0,0,1,.82.33,1.79,1.79,0,0,1,.63.7,2.32,2.32,0,0,1,.25,1.16v4.35h-1.24v-.9h-.05a2,2,0,0,1-.37.49,1.92,1.92,0,0,1-.64.39A2.38,2.38,0,0,1,154.75,560.58Zm.28-1a1.81,1.81,0,0,0,.9-.21,1.4,1.4,0,0,0,.58-.55,1.42,1.42,0,0,0,.2-.72v-.85a.69.69,0,0,1-.26.13,3.83,3.83,0,0,1-.45.1l-.48.07-.39.05a3.13,3.13,0,0,0-.67.16,1.08,1.08,0,0,0-.49.32.78.78,0,0,0-.18.54.82.82,0,0,0,.35.72A1.53,1.53,0,0,0,155,559.56Z"/><path class="cls-12" d="M164.58,555.49l-1.15.2a1.75,1.75,0,0,0-.23-.42,1.19,1.19,0,0,0-.42-.33,1.62,1.62,0,0,0-.66-.12,1.59,1.59,0,0,0-.9.24.7.7,0,0,0-.37.62.67.67,0,0,0,.25.53,1.92,1.92,0,0,0,.78.32l1,.24a2.84,2.84,0,0,1,1.35.65,1.52,1.52,0,0,1,.44,1.13,1.66,1.66,0,0,1-.34,1,2.16,2.16,0,0,1-.94.72,3.57,3.57,0,0,1-1.4.26,3.15,3.15,0,0,1-1.79-.47,2,2,0,0,1-.85-1.34l1.23-.19a1.2,1.2,0,0,0,.47.73,1.66,1.66,0,0,0,.94.24,1.77,1.77,0,0,0,1-.26.77.77,0,0,0,.37-.64.65.65,0,0,0-.23-.52,1.48,1.48,0,0,0-.69-.31l-1.11-.25a2.59,2.59,0,0,1-1.35-.66,1.6,1.6,0,0,1-.44-1.15,1.7,1.7,0,0,1,.32-1,2.15,2.15,0,0,1,.9-.68,3.33,3.33,0,0,1,1.31-.24,2.78,2.78,0,0,1,1.67.45A2.2,2.2,0,0,1,164.58,555.49Z"/><path class="cls-12" d="M172.11,560.57a3.19,3.19,0,0,1-1.67-.42,2.7,2.7,0,0,1-1.07-1.17,3.91,3.91,0,0,1-.38-1.77,4,4,0,0,1,.38-1.78,2.79,2.79,0,0,1,1.06-1.19,2.87,2.87,0,0,1,1.59-.43,3.21,3.21,0,0,1,1.07.18,2.61,2.61,0,0,1,.94.57,2.93,2.93,0,0,1,.65,1,4.25,4.25,0,0,1,.24,1.52v.45h-5.21v-1h4a1.86,1.86,0,0,0-.21-.89,1.54,1.54,0,0,0-.57-.62,1.62,1.62,0,0,0-.86-.22,1.72,1.72,0,0,0-.94.26,1.81,1.81,0,0,0-.61.68,1.91,1.91,0,0,0-.22.91v.75a2.46,2.46,0,0,0,.23,1.11,1.73,1.73,0,0,0,.65.71,2,2,0,0,0,1,.24,2,2,0,0,0,.66-.11,1.32,1.32,0,0,0,.85-.83l1.21.22a2.14,2.14,0,0,1-.52.93,2.49,2.49,0,0,1-.94.62A3.35,3.35,0,0,1,172.11,560.57Z"/><path class="cls-12" d="M179.19,552.84v-1.13h6.75v1.13h-2.72v7.6H181.9v-7.6Z"/><path class="cls-12" d="M189.19,560.57a3.15,3.15,0,0,1-1.66-.42,2.67,2.67,0,0,1-1.08-1.17,3.91,3.91,0,0,1-.37-1.77,4,4,0,0,1,.37-1.78,2.84,2.84,0,0,1,2.65-1.62,3.31,3.31,0,0,1,1.08.18,2.66,2.66,0,0,1,.93.57,2.93,2.93,0,0,1,.65,1,4.25,4.25,0,0,1,.24,1.52v.45h-5.2v-1h3.95a2,2,0,0,0-.2-.89,1.64,1.64,0,0,0-.58-.62,1.6,1.6,0,0,0-.86-.22,1.66,1.66,0,0,0-.93.26,1.76,1.76,0,0,0-.62.68,2,2,0,0,0-.21.91v.75a2.34,2.34,0,0,0,.23,1.11,1.6,1.6,0,0,0,.65.71,2.06,2.06,0,0,0,1.63.13,1.36,1.36,0,0,0,.52-.31,1.22,1.22,0,0,0,.33-.52l1.21.22a2.14,2.14,0,0,1-.52.93,2.53,2.53,0,0,1-.93.62A3.44,3.44,0,0,1,189.19,560.57Z"/><path class="cls-12" d="M196.18,560.57a3,3,0,0,1-1.64-.43,2.92,2.92,0,0,1-1-1.2,4.06,4.06,0,0,1-.37-1.75,4,4,0,0,1,.38-1.76,2.79,2.79,0,0,1,1.06-1.19,2.9,2.9,0,0,1,1.6-.43,3.13,3.13,0,0,1,1.33.27,2.4,2.4,0,0,1,.95.77,2.26,2.26,0,0,1,.42,1.16h-1.24a1.45,1.45,0,0,0-.46-.8,1.4,1.4,0,0,0-1-.33,1.57,1.57,0,0,0-.93.28,1.91,1.91,0,0,0-.62.79,3.19,3.19,0,0,0-.22,1.21,3.12,3.12,0,0,0,.22,1.24,1.82,1.82,0,0,0,.61.81,1.58,1.58,0,0,0,.94.28,1.53,1.53,0,0,0,.66-.13,1.28,1.28,0,0,0,.5-.39,1.39,1.39,0,0,0,.28-.6h1.24a2.34,2.34,0,0,1-.41,1.13,2.42,2.42,0,0,1-.92.78A3,3,0,0,1,196.18,560.57Z"/><path class="cls-12" d="M201.51,556.55v3.89h-1.28v-6.55h1.23V555h.08a1.81,1.81,0,0,1,.71-.84,2.19,2.19,0,0,1,1.22-.31,2.36,2.36,0,0,1,1.17.28,1.93,1.93,0,0,1,.78.82,3.08,3.08,0,0,1,.28,1.36v4.17h-1.28v-4a1.58,1.58,0,0,0-.37-1.12,1.32,1.32,0,0,0-1-.4,1.53,1.53,0,0,0-.78.19,1.48,1.48,0,0,0-.55.56A1.89,1.89,0,0,0,201.51,556.55Z"/><path class="cls-12" d="M210.16,560.57a3,3,0,0,1-1.61-.42,2.82,2.82,0,0,1-1.06-1.18,4.36,4.36,0,0,1,0-3.56,2.76,2.76,0,0,1,1.06-1.18,3,3,0,0,1,1.61-.42,3,3,0,0,1,1.6.42,2.79,2.79,0,0,1,1.07,1.18,4.36,4.36,0,0,1,0,3.56,2.84,2.84,0,0,1-1.07,1.18A3,3,0,0,1,210.16,560.57Zm0-1.07a1.53,1.53,0,0,0,1-.32,1.82,1.82,0,0,0,.58-.84,3.23,3.23,0,0,0,.19-1.15,3.27,3.27,0,0,0-.19-1.15,1.85,1.85,0,0,0-.58-.85,1.69,1.69,0,0,0-2,0,1.87,1.87,0,0,0-.59.85,3.51,3.51,0,0,0-.19,1.15,3.47,3.47,0,0,0,.19,1.15,1.84,1.84,0,0,0,.59.84A1.53,1.53,0,0,0,210.16,559.5Z"/><path class="cls-12" d="M215.9,551.71v8.73h-1.27v-8.73Z"/><path class="cls-12" d="M220.37,560.57a3,3,0,0,1-1.6-.42A2.84,2.84,0,0,1,217.7,559a4.36,4.36,0,0,1,0-3.56,2.79,2.79,0,0,1,1.07-1.18,3,3,0,0,1,1.6-.42,3,3,0,0,1,1.61.42,2.76,2.76,0,0,1,1.06,1.18,4.36,4.36,0,0,1,0,3.56,2.82,2.82,0,0,1-1.06,1.18A3,3,0,0,1,220.37,560.57Zm0-1.07a1.52,1.52,0,0,0,1-.32,1.84,1.84,0,0,0,.59-.84,3.47,3.47,0,0,0,.19-1.15A3.51,3.51,0,0,0,222,556a1.87,1.87,0,0,0-.59-.85,1.52,1.52,0,0,0-1-.32,1.56,1.56,0,0,0-1,.32,1.85,1.85,0,0,0-.58.85,3.27,3.27,0,0,0-.19,1.15,3.23,3.23,0,0,0,.19,1.15,1.82,1.82,0,0,0,.58.84A1.56,1.56,0,0,0,220.38,559.5Z"/><path class="cls-12" d="M227.59,563a3.81,3.81,0,0,1-1.34-.21,2.41,2.41,0,0,1-1.45-1.27l1.1-.46a2.55,2.55,0,0,0,.31.4,1.54,1.54,0,0,0,.53.36,2.11,2.11,0,0,0,.86.15,2,2,0,0,0,1.2-.35,1.33,1.33,0,0,0,.47-1.12v-1.29h-.08a3.44,3.44,0,0,1-.33.47,1.82,1.82,0,0,1-.59.44,2.14,2.14,0,0,1-1,.19,2.72,2.72,0,0,1-1.39-.36,2.57,2.57,0,0,1-1-1.08,3.92,3.92,0,0,1-.36-1.76,4.08,4.08,0,0,1,.35-1.79,2.78,2.78,0,0,1,1-1.15,2.6,2.6,0,0,1,1.41-.39,2,2,0,0,1,1,.2,1.78,1.78,0,0,1,.59.47,5.35,5.35,0,0,1,.33.47h.09v-1.06h1.25v6.69a2.33,2.33,0,0,1-.39,1.39,2.38,2.38,0,0,1-1.06.8A4.22,4.22,0,0,1,227.59,563Zm0-3.75a1.53,1.53,0,0,0,1.51-1,2.9,2.9,0,0,0,.2-1.16,3.17,3.17,0,0,0-.19-1.16,1.83,1.83,0,0,0-.58-.79,1.5,1.5,0,0,0-.94-.28,1.53,1.53,0,0,0-1,.3,1.77,1.77,0,0,0-.57.8,3.11,3.11,0,0,0-.2,1.13,3,3,0,0,0,.2,1.13,1.65,1.65,0,0,0,.58.76A1.64,1.64,0,0,0,227.57,559.28Z"/><path class="cls-12" d="M232.89,552.88a.8.8,0,0,1-.57-.22.75.75,0,0,1,0-1.08.85.85,0,0,1,1.14,0,.73.73,0,0,1,0,1.08A.8.8,0,0,1,232.89,552.88Zm-.64,7.56v-6.55h1.27v6.55Z"/><path class="cls-12" d="M237.14,560.58a2.7,2.7,0,0,1-1.12-.23,1.84,1.84,0,0,1-.8-.68,1.93,1.93,0,0,1-.29-1.08,1.75,1.75,0,0,1,.21-.91,1.59,1.59,0,0,1,.58-.57,2.92,2.92,0,0,1,.81-.32,8.63,8.63,0,0,1,.91-.16l.95-.11a1.41,1.41,0,0,0,.54-.15.36.36,0,0,0,.16-.33v0a1.17,1.17,0,0,0-.31-.87,1.3,1.3,0,0,0-.93-.3,1.6,1.6,0,0,0-1,.28,1.49,1.49,0,0,0-.51.63l-1.2-.27a2.35,2.35,0,0,1,.62-1,2.62,2.62,0,0,1,.95-.53,3.56,3.56,0,0,1,1.13-.17,4.12,4.12,0,0,1,.83.09,2.49,2.49,0,0,1,.83.33,1.79,1.79,0,0,1,.63.7,2.32,2.32,0,0,1,.25,1.16v4.35h-1.24v-.9h-.06a1.62,1.62,0,0,1-.37.49,1.78,1.78,0,0,1-.63.39A2.38,2.38,0,0,1,237.14,560.58Zm.28-1a1.81,1.81,0,0,0,.9-.21,1.47,1.47,0,0,0,.58-.55,1.42,1.42,0,0,0,.2-.72v-.85a.67.67,0,0,1-.27.13,3.64,3.64,0,0,1-.44.1l-.48.07-.39.05a3.39,3.39,0,0,0-.68.16,1.1,1.1,0,0,0-.48.32.78.78,0,0,0-.18.54.8.8,0,0,0,.35.72A1.53,1.53,0,0,0,237.42,559.56Z"/><path class="cls-12" d="M250.39,555.52v1.11h-6v-1.11Z"/><path class="cls-12" d="M260.14,551.71h1.32v5.74a3,3,0,0,1-1.64,2.73,3.92,3.92,0,0,1-1.83.4,3.88,3.88,0,0,1-1.82-.4,3,3,0,0,1-1.21-1.11,3,3,0,0,1-.43-1.62v-5.74h1.31v5.63a2.06,2.06,0,0,0,.27,1.06,1.9,1.9,0,0,0,.74.72,2.4,2.4,0,0,0,1.14.26,2.44,2.44,0,0,0,1.15-.26,1.9,1.9,0,0,0,.74-.72,2.16,2.16,0,0,0,.26-1.06Z"/><path class="cls-12" d="M264.55,556.55v3.89h-1.27v-6.55h1.22V555h.08a1.87,1.87,0,0,1,.71-.84,2.19,2.19,0,0,1,1.22-.31,2.33,2.33,0,0,1,1.17.28,1.82,1.82,0,0,1,.78.82,2.94,2.94,0,0,1,.28,1.36v4.17h-1.28v-4a1.58,1.58,0,0,0-.37-1.12,1.29,1.29,0,0,0-1-.4,1.55,1.55,0,0,0-.78.19,1.39,1.39,0,0,0-.54.56A1.77,1.77,0,0,0,264.55,556.55Z"/><path class="cls-12" d="M273.26,560.57a3.15,3.15,0,0,1-1.66-.42,2.64,2.64,0,0,1-1.07-1.17,3.79,3.79,0,0,1-.38-1.77,3.91,3.91,0,0,1,.38-1.78,2.83,2.83,0,0,1,1.05-1.19,2.89,2.89,0,0,1,1.59-.43,3.31,3.31,0,0,1,1.08.18,2.57,2.57,0,0,1,.93.57,2.79,2.79,0,0,1,.65,1,4.25,4.25,0,0,1,.24,1.52v.45h-5.2v-1h3.95a2,2,0,0,0-.2-.89,1.64,1.64,0,0,0-.58-.62,1.6,1.6,0,0,0-.86-.22,1.66,1.66,0,0,0-.93.26,1.84,1.84,0,0,0-.62.68,2,2,0,0,0-.21.91v.75a2.46,2.46,0,0,0,.23,1.11,1.6,1.6,0,0,0,.65.71,1.92,1.92,0,0,0,1,.24,2,2,0,0,0,.66-.11,1.32,1.32,0,0,0,.51-.31,1.22,1.22,0,0,0,.33-.52l1.21.22a2.14,2.14,0,0,1-.52.93,2.53,2.53,0,0,1-.93.62A3.4,3.4,0,0,1,273.26,560.57Z"/><path class="cls-12" d="M282.4,555.49l-1.16.2a1.46,1.46,0,0,0-.23-.42,1.19,1.19,0,0,0-.42-.33,1.56,1.56,0,0,0-.66-.12,1.59,1.59,0,0,0-.9.24.71.71,0,0,0-.36.62.66.66,0,0,0,.24.53,1.92,1.92,0,0,0,.78.32l1,.24a2.8,2.8,0,0,1,1.35.65,1.52,1.52,0,0,1,.44,1.13,1.66,1.66,0,0,1-.34,1,2.16,2.16,0,0,1-.94.72,3.52,3.52,0,0,1-1.39.26,3.19,3.19,0,0,1-1.8-.47,2,2,0,0,1-.85-1.34l1.23-.19a1.22,1.22,0,0,0,.48.73,1.6,1.6,0,0,0,.93.24,1.74,1.74,0,0,0,1-.26.77.77,0,0,0,.37-.64.67.67,0,0,0-.22-.52,1.52,1.52,0,0,0-.7-.31l-1.11-.25a2.59,2.59,0,0,1-1.35-.66,1.6,1.6,0,0,1-.44-1.15,1.64,1.64,0,0,1,.33-1,2.06,2.06,0,0,1,.89-.68,3.36,3.36,0,0,1,1.31-.24,2.76,2.76,0,0,1,1.67.45A2.17,2.17,0,0,1,282.4,555.49Z"/><path class="cls-12" d="M283.92,562.89v-9h1.25V555h.1a5,5,0,0,1,.32-.47,1.73,1.73,0,0,1,.58-.47,2,2,0,0,1,1-.2,2.56,2.56,0,0,1,1.42.4,2.63,2.63,0,0,1,1,1.15,4.19,4.19,0,0,1,.36,1.82,4.33,4.33,0,0,1-.35,1.81,2.71,2.71,0,0,1-1,1.17,2.5,2.5,0,0,1-1.41.4,2,2,0,0,1-1-.2,1.89,1.89,0,0,1-.59-.46,4.2,4.2,0,0,1-.33-.48h-.07v3.47Zm1.25-5.73a3.41,3.41,0,0,0,.2,1.21,1.85,1.85,0,0,0,.58.82,1.49,1.49,0,0,0,.93.29,1.43,1.43,0,0,0,.95-.31,1.81,1.81,0,0,0,.58-.83,3.11,3.11,0,0,0,.2-1.18,3.25,3.25,0,0,0-.19-1.16,1.8,1.8,0,0,0-.58-.81,1.7,1.7,0,0,0-1.9,0,1.87,1.87,0,0,0-.58.8A3.34,3.34,0,0,0,285.17,557.16Z"/><rect id="Borda_frente" data-name="Borda frente" class="cls-13" x="15.97" y="14.43" width="809.95" height="566.42"/></g></svg>