<svg height="1024" viewBox="0 0 1024 1024" width="1024" xmlns="http://www.w3.org/2000/svg"><path d="m86.53 808.83a85.07 85.07 0 0 1 -85-85v-120.45a92.2 92.2 0 0 0 54.97-30.38 91.88 91.88 0 0 0 22.75-60.56 91.88 91.88 0 0 0 -22.75-60.53 92.28 92.28 0 0 0 -54.95-30.37v-120.45a85 85 0 0 1 85-85h851a85.08 85.08 0 0 1 85 85v119.52a92 92 0 0 0 0 183.71v119.54a85.07 85.07 0 0 1 -85 85zm48.28-51.57h32.76v-80.6h-32.76zm0-136.33h32.76v-80.6h-32.76zm0-136.33h32.76v-80.6h-32.76zm0-136.33h32.76v-80.61h-32.76z" fill="#fff0b0"/><path d="m937.52 217.6a83.58 83.58 0 0 1 83.48 83.49v118.12a93.53 93.53 0 0 0 0 186.51v118.14a83.57 83.57 0 0 1 -83.48 83.47h-851a83.57 83.57 0 0 1 -83.47-83.47v-119.21a93.7 93.7 0 0 0 54.57-30.65 93.36 93.36 0 0 0 23.13-61.55 93.36 93.36 0 0 0 -23.13-61.55 93.78 93.78 0 0 0 -54.57-30.63v-119.18a83.48 83.48 0 0 1 83.48-83.49h851m-804.22 132.17h35.76v-83.61h-35.76zm0 136.33h35.76v-83.62h-35.76zm0 136.33h35.76v-83.6h-35.76zm0 136.33h35.76v-83.6h-35.76zm804.21-544.16h-851a86.48 86.48 0 0 0 -86.47 86.49v121.75a90.6 90.6 0 0 1 77.7 89.63 90.58 90.58 0 0 1 -77.7 89.62v121.77a86.48 86.48 0 0 0 86.48 86.47h851a86.48 86.48 0 0 0 86.47-86.47v-121a90.53 90.53 0 0 1 0-180.86v-120.91a86.48 86.48 0 0 0 -86.48-86.49zm-801.21 132.17v-77.61h29.76v77.61zm0 136.33v-77.62h29.76v77.62zm0 136.33v-77.6h29.76v77.6zm0 136.33v-77.6h29.76v77.6z"/><path d="m510.4 580.08 4.41 5c1.43-8.92 5.52-15.06 14-17.69.54-.17 1-1.21 1.13-1.9.35-2.82.68-5.62 2.63-7.87 1.23-1.42 2.55-2.76 3.95-4.26a25.89 25.89 0 0 0 -2.7-.32c-6.16 0-10.38-4-12.15-9.09-1.48-4.23-.73-8.44.2-12.61 1.18-5.25 2.51-10.47 3.73-15.71a4.93 4.93 0 0 0 -.1-1.47c-.38.41-1 .76-1.12 1.24-.43 1.3-.67 2.66-1 4q-1.93 8.26-3.86 16.51c-5.16.21-5.19.05-5.37-5.19-.25-7.3 1.1-14.4 2.3-21.53a14.31 14.31 0 0 1 .59-2l1.81-.3c.26-3.64 2.17-7.07.22-10.64-.37-.68 0-1.89.27-2.75.73-2 1.63-4 2.47-6 .22-.52.72-1.1.62-1.56-.69-3.27.77-5.93 2.36-8.51 1.36-2.23 2.88-4.23 3.44-7 .75-3.75 3.67-6.3 6.39-8.84a16.68 16.68 0 0 0 1.9-2.27c1.74-2.27 3.35-4.66 5.22-6.82 1.21-1.41 3.18-2.26 4.09-3.79a27 27 0 0 1 9.33-8.9 5.07 5.07 0 0 0 1.57-1.37 23.05 23.05 0 0 1 11.37-8.44 5.55 5.55 0 0 0 2.1-1.3 20.25 20.25 0 0 1 10.46-5.7 25.91 25.91 0 0 0 3.72-1.55 74.13 74.13 0 0 1 7-2.75c2.51-.73 5.31-.39 7.59-2.13a6.58 6.58 0 0 1 2.44-.82c4.54-1.13 7.52.51 8.3 3.86-2 2.64-3.49 5-5.29 7-.72.83-2.17 1.81-3 1.6-1.56-.37-.91-1.92-.38-2.9 1-1.8 2.12-3.5 3.2-5.25-2.86-.54-5.59-.25-7.47 2a23 23 0 0 0 -3.19 5.75c-.56 1.31-2 3-3.06 2.61-1.6-.57-1.35-1.87-.92-3.09.55-1.54 1.19-3.05 1.81-4.65a4.11 4.11 0 0 0 -1.05 0c-4.36.95-8.51 4.07-8.22 9.83.07 1.58-1.44 3.32-2.67 3.09-1.67-.31-1.85-1.73-1.66-3.06.24-1.66.72-3.29 1.15-5.15-.78.22-1.46.34-2.1.59-4.22 1.66-6.23 5.15-5.68 9.7a2.74 2.74 0 0 1 -2.43 3.11c-1.66.36-2.12-1.1-2.27-2.28a25.37 25.37 0 0 1 .22-4.2c-1.54.95-2.88 1.67-4.1 2.55-2.95 2.13-3.56 5.33-2.12 8.72.32.76-.23 2.19-.84 3a1.77 1.77 0 0 1 -3 0 39.72 39.72 0 0 1 -2.26-4.41 33.84 33.84 0 0 0 -4.11 4.7c-1.3 2.13-1.7 4.87 1.55 6.52 1.4.72.9 1.82.25 2.76a3 3 0 0 1 -4.6.43 25.72 25.72 0 0 1 -2.92-3.8 7.56 7.56 0 0 0 -3.6 4.67c-.7 2.25-.11 4 1.91 5.13 1.59.87 1.43 1.73.4 2.91a3 3 0 0 1 -4.29.59c-1.15-.69-2.2-1.55-3.45-2.45a28.75 28.75 0 0 0 -2.8 4.54c-1.08 2.62.63 5.07 3.41 5.51.62.1 1.58.56 1.65 1a2.4 2.4 0 0 1 -.66 2.08 6.22 6.22 0 0 1 -3.56 1c-1.48-.2-2.86-1.14-4.45-1.84a33.58 33.58 0 0 0 -1.56 3c-1.36 3.41.5 6.1 4.19 6.13.8 0 1.61-.06 2.41 0 1.55.12 2.19 1.21 1.11 2.3a6.63 6.63 0 0 1 -3.83 2c-2.06.13-4.18-.45-6.45-.75-.2.57-.53 1.36-.78 2.18-.91 3 .76 5.5 3.82 5.65 1.13.06 2.29-.35 3.42-.31.79 0 1.93.25 2.24.78a2.32 2.32 0 0 1 -.53 2.24 8.86 8.86 0 0 1 -3.65 1.63 31 31 0 0 1 -5 .07c-.51 2-.95 3.88.48 5.64a6.16 6.16 0 0 0 7.46 1.25 62.65 62.65 0 0 0 5.72-4.22l.52 1.7c3.83 0 7.62.06 11.4-.06.53 0 1.25-.76 1.52-1.34 1.93-4 3.56-8.22 5.68-12.14 4.16-7.74 9.32-14.77 16.45-20.06 9.92-7.34 21.24-10.2 33.45-10.08q25.07.24 50.13.33c1.81 0 3.62-.23 5.42-.39 10.15-.88 17-11 15-20.51-1.55-7.32-8.63-13.57-16.15-13.66q-22.11-.24-44.22-.42c-1.43 0-2.24-.12-2.35-1.91a27.87 27.87 0 0 0 -6.36-16.69 5.77 5.77 0 0 0 -3.43-1.9 36.16 36.16 0 0 0 -6.48.3c-1.36.12-2.21.09-2.58-1.68-1.37-6.56-3.52-12.78-8.47-16.83-.34-3.23-.21-6.13-1-8.73-1.54-4.84-3.52-9.55-5.53-14.22a25.29 25.29 0 0 1 -2.33-13 16.21 16.21 0 0 0 -.4-3.63c-.93.7-1.87 1.39-2.79 2.1-.16.13-.22.38-.34.56l-6.51 9.54c-.23-.06-.34-.06-.36-.09-1.68-3.66-3.34-7.33-5-11a215.56 215.56 0 0 0 -39.88-58.7 326 326 0 0 0 -45.55-40.34c-5.93-4.27-11.94-8.43-17.95-12.59a3.28 3.28 0 0 0 -2.11-.48c-.28 0-.67 1.11-.59 1.64 1.1 7.12 2.05 14.28 3.48 21.34 2.46 12.18 6.93 23.58 14.32 33.7 2.15 2.94 4.36 5.83 6.56 8.77-.2.09-.29.16-.32.14-1.21-.79-2.42-1.57-3.6-2.39a349.81 349.81 0 0 0 -57.44-32 7 7 0 0 0 -2.18-.2 8 8 0 0 0 0 2.25c1.9 6 3.67 12.13 5.85 18.06 4.43 12 10.57 23 19.7 32.15 1.85 1.85 3.75 3.64 5.69 5.52-10-3.3-19.76-6.74-29.65-9.72a188.09 188.09 0 0 0 -30.37-6.85c7.52 15.2 15.76 29.67 28.79 40.79-4.44-.87-8.69-2-13-2.82q-12-2.32-24.06-4.36c-3.64-.61-7.32-.94-11-1.33-.5-.05-1.39.21-1.48.51a2.36 2.36 0 0 0 .41 1.69c1.56 2.36 3.09 4.75 4.81 7 4.75 6.14 9.35 12.43 14.49 18.23 3.57 4 8 7.35 12 11a13.28 13.28 0 0 1 -1.54 0c-6.61-.7-13.22-1.46-19.84-2.12-3.11-.3-6.24-.46-9.37-.58-7-.28-14-.48-21-.71a2.35 2.35 0 0 0 -.65.05c-1.71.36-2.06 1.24-.9 2.52 4.49 5 8.88 10 13.55 14.82 9.57 9.83 20.62 17.49 33.69 22l9.24 3.21a6.71 6.71 0 0 1 -1 .19c-15-1-30 .09-44.92 1.46-8.41.78-16.76 2.25-25.13 3.47-.64.09-1.71.6-1.71.92a2.82 2.82 0 0 0 .94 2c3.42 2.82 6.94 5.51 10.38 8.29 13.63 11 28.81 18.58 46.8 20.9a12.45 12.45 0 0 1 -1.5.68c-10.09 2.66-20.27 5-30.26 8.05-8.42 2.53-16.62 5.76-24.88 8.76a11.18 11.18 0 0 0 -2.51 1.8 15.19 15.19 0 0 0 2.29 2c2 1.13 4.1 2.08 6.15 3.15 9.61 5 19.49 9.35 30.19 11.54 2.46.5 5 .9 7.72 1.4-7 2.75-13.65 5.19-20.18 8-8.08 3.49-16.05 7.27-24 11-.67.32-1.1 1.15-1.64 1.75a9 9 0 0 0 1.76 1.32c11.69 4.8 23.31 9.82 36.34 11.48a10.11 10.11 0 0 1 -1.07.93c-8.85 5.75-17.83 11.33-26.53 17.3-6 4.14-11.7 8.81-17.48 13.3a7.32 7.32 0 0 0 -1.31 2.07 12.81 12.81 0 0 0 2.1.81c1.91.38 3.85.64 5.77 1 10.27 1.86 20.54 3.39 31.08 2.62a87.85 87.85 0 0 0 20.81-3.86c3.46-1.13 6.87-2.43 10.44-3.71-.14.32-.16.48-.25.55-8.49 7.07-17.32 13.78-25.39 21.3-9.1 8.48-17.53 17.69-26.23 26.61a5.54 5.54 0 0 0 -.79 1.68 5.59 5.59 0 0 0 1.89.7c8.22-.11 16.45-.19 24.67-.48a64.13 64.13 0 0 0 19.68-3.88c6.3-2.3 12.42-5.1 18.27-7.54.1-.15-.07.16-.27.43-4.48 5.9-9.25 11.6-13.36 17.74-6.72 10-13 20.37-19.43 30.61a7.75 7.75 0 0 0 -.58 2.52 13.06 13.06 0 0 0 2.42 0c2.34-.4 4.67-.89 7-1.37 9.91-2 19.69-4.42 28.83-8.89 3-1.48 6-3.05 9.09-4.63a1.86 1.86 0 0 1 -.09.66c-3.82 6.58-7.85 13-11.44 19.74-3.89 7.25-7.38 14.71-11 22.1a3.52 3.52 0 0 0 -.09 2.18c0 .18 1.18.3 1.71.13 7-2.22 14.07-4.27 21-6.8 11.42-4.18 22-10 30.41-18.92s16.4-18.49 24.22-28c9.14-11.18 17.86-22.72 26.88-34 3.53-4.49 7.35-8.59 11.07-12.88z"/><path d="m650.16 621.27c4.5 0 9.12 0 13.47-.93a17 17 0 0 0 9.37-27.51c-3.8-4.6-8.87-6.47-14.6-6.5-16.27-.09-32.55 0-48.82-.06a119.61 119.61 0 0 1 -24.46-2.17c-6.38-1.36-12.24-3.84-17-8.81 2.43.17 4.86.39 7.3.46.49 0 1-.53 1.48-.82-.48-.29-.94-.8-1.45-.85-2.92-.34-5.39-1.51-6.79-4.12a39 39 0 0 1 -3.09-7.3c-1.91-6.43-5.53-9.64-12.22-10.55a2.13 2.13 0 0 1 -1.46-1.21c-1.22-4.35-2.4-8.72-3.4-13.12-.3-1.3-.66-1.86-2.06-1.85-6 .06-12 0-18 0h-2.75l5.19-21.75-.72-.24a14.54 14.54 0 0 0 -1 2.35c-1.61 6.93-3.35 13.83-4.68 20.81-.88 4.65 1.47 10.86 7.32 12.18 2.73.62 5.64.49 8.47.65a10.29 10.29 0 0 1 6.53 2.38l-.82 1.74a42.69 42.69 0 0 0 4.29-.28c5.86-1 11.77 2.3 13.29 7.89 1.23 4.52 2.65 8.82 6 12.61l-14.55-2.27a6.71 6.71 0 0 0 -.44 2.36 20.06 20.06 0 0 0 1.23 5.86c.41.9 2.09 1.22 3.17 1.85a17.39 17.39 0 0 1 8.25 10c1.53 4.72.47 9.37-.24 14.61-3-5.1-7.67-7.16-13-9.47l1.62 3.75c1.18-.06 2.23-.35 2.44-.06a2.86 2.86 0 0 1 .33 2.18 39.77 39.77 0 0 1 -7.57 14.25c-.4.49-1.2.67-1.81 1l-.51-.65c3.15-4.43 6.55-8.73 7.76-14.24-.41-.23-.71-.41-1-.57s-.59-.26-1.06-.46a20 20 0 0 1 -7.23 11.44 1.77 1.77 0 0 0 -.64 1.06c-.3 2.42-.52 4.85-.82 7.81 3.88-2.52 7.91-4.61 11.28-7.47s4.81-7.4 5.22-12c2.52 3.63-.24 6.77-1.08 10.09 1 .3 1.92.58 2.87.9a129.75 129.75 0 0 0 38.23 6.59c16.05.36 32.11.41 48.16.44z"/><path d="m700 769.2c-2.33.4-4.67 1.34-7 1.24a38.18 38.18 0 0 1 -15-3.73c-5.38-2.58-10.66-5.35-16-8a19.41 19.41 0 0 0 -18.45.11c-2.42 1.26-4.85 2.52-7.33 3.65a4.6 4.6 0 0 1 -2.89.58c-2.73-.82-5.36-2-8-3 1-4.24-.23-6.07-4.2-7.17a2.34 2.34 0 0 1 -1.27-1.42 24.12 24.12 0 0 0 -15.86-15.8c-2.82-.95-5.78-2.68-8.77-.48-1.07.79-1.81.56-2.87 0-10.8-5.56-20.48-12.44-28.13-22.06a146.77 146.77 0 0 1 -19.94-33.28c-.63-1.47-1.13-3-1.83-4.81 1.93.66 3.35 1.18 4.79 1.64s2.82.87 4.23 1.29c.18-.33.35-.67.53-1-3.21-1.61-6.4-3.23-7.7-6.88l-.73.27c.18 1.18.36 2.36.55 3.54l-1.68-.45c-1.26 2.29-1.26 2.29-.44 4.36a138.5 138.5 0 0 0 12.25 23.82c6.81 10.64 14.58 20.45 25.25 27.54 4.2 2.79 8.59 5.26 12.89 7.88-1.86 2.57-1.89 2.63-2.92 2.1a90.11 90.11 0 0 1 -20.12-13.54c-11.61-10.75-20-23.86-26.8-38-2.27-4.67-4.1-9.55-6.36-14.88a7.52 7.52 0 0 0 1.41.54h2.45a13.71 13.71 0 0 0 -1.82-1.52c-2.25-1.3-4.54-2.52-6.82-3.75a7.79 7.79 0 0 0 -1.29-.39c-.25 2.25 1.72 2.38 2.7 3.33s2.06 1.53 2.41 2.53a146.23 146.23 0 0 0 18.83 36.54c5.56 7.87 11.63 15.26 19.59 20.83 5.24 3.66 10.68 7 16.15 10.64-.33 2.08-.76 4.5-1.07 6.93-.73 5.67 1.14 10.31 7.26 11.68s12.44 1.72 18.66 0a2 2 0 0 1 1.69.42c2 2.55 3.86 3 6.75 1.55a2.73 2.73 0 0 1 1.7-.25c4.44 1.09 8.07 3.24 10 7.67.69 1.58 1.68 3 2.47 4.57a16.41 16.41 0 0 0 10.7 8.79c8.87 2.4 17.81 1.84 26.71.21 9.13-1.69 17.09-6.25 25.07-10.71a4.62 4.62 0 0 0 1.53-1.18 7.36 7.36 0 0 0 .69-1.86 9.24 9.24 0 0 0 -1.97-.09z"/><path d="m551.5 653-.64-4.19-10.45 1.46c-.62 1.28-1 2.13-1.45 3-.53-.89-1.07-1.77-1.86-3.08l-1.44-.3c2-2.43 2.13-4 .57-8.44-2.9 4.69-7.09 7.77-11.5 10.6a6 6 0 0 1 -2.09.42c.39-.63.63-1.5 1.19-1.86 4.44-2.86 8.51-6.08 11.27-10.71 1-1.66.68-4.74-1.21-6a4.32 4.32 0 0 0 -3.92.29c-1.07.73-1.47 2.42-2.21 3.66-.37.64-.83 1.22-1.26 1.82-.29-.65-.61-1.29-.86-2a3.07 3.07 0 0 1 -.06-.81l-.66-.28c-.92 2-2.38 4-2.66 6.08-.59 4.53-1.63 8.75-5.19 12.53 3.4-.54 6.28-.85 9.09-1.48s5.5-1.61 8.24-2.43l.27.66-3.27 2.25c3.3 5.24 9.69 7.91 10.78 14.79a7.36 7.36 0 0 0 .89-1.07 76.48 76.48 0 0 0 3.16-7.42c1-3 2-6.23-.65-9.06l.21-.6z"/><path d="m553.77 620c-2.85 1.2-3.32 2.21-2.69 5.35 1.47 7.2 8.58 14 16.35 15.44-2.12-4.11-1.64-8.29-.57-12.35 1.4-5.3-1.92-10.58-6.35-12.69a2.2 2.2 0 0 0 -1.54-.28 5.34 5.34 0 0 0 -2.94 6.36 32.33 32.33 0 0 0 6.33 12.38 28.78 28.78 0 0 1 1.53 2.5l-.93.52c-4.9-4.6-7.75-10.41-9.19-17.23z"/><path d="m549 576.61c-1.3-1.82-2.55-3.69-3.68-5.61-2.68-4.56-3.54-9.66-4-15-6.25 8 1.25 22.68 12.81 25.26-1.63-4.43-.95-8.77-.2-13.23 1.06-6.27-3.73-12.51-10.81-13.24a26.12 26.12 0 0 0 2.05 11.82c1.64 3.65 3.79 7.07 5.71 10.59a2 2 0 0 1 -1.88-.59z"/><path d="m559.1 655.39a17.9 17.9 0 0 0 8-8.85c1.23-3.09.66-4-2.77-4.49-2.76 7.34-6.46 12.69-9.3 12.76 2.84-4.61 6.56-8.49 7.58-13.85-2-1.24-4-2.56-6-3.71a2.08 2.08 0 0 0 -1.73.28c-2.7 1.79-3.36 4.64-2.86 7.48.81 4.63 2 9.18.18 14.06 2.28-1.22 4.64-2.36 6.9-3.68z"/><path d="m531.7 659.39c.32-1.56-1.48-4.76-2.49-4.58-2.51.44-5 1.08-7.64 1.67a39.69 39.69 0 0 0 .39 4.7c.62 3.09 1.44 6.15 2.1 9.24.1.44-.21 1-.33 1.45a6.65 6.65 0 0 1 -1.2-.94 3 3 0 0 1 -.43-1.21c-1-4.39-1.87-8.8-2.82-13.26l-3.11.54c-1.49 9 4 14.4 10 20.19-.58-5.16 1.81-8.86 3.94-12.7a18 18 0 0 0 1.59-5.1z"/><path d="m546.57 593.83c-1.8-3-3.63-6-5.13-9.22a44.21 44.21 0 0 1 -2-6.51c-1.94.52-2.82 1.68-2.45 3.65.26 1.34.45 2.69.8 4 1.91 7.25 7.93 10.18 14.14 13.41a18.81 18.81 0 0 1 -.87-4.21c.1-3.08.55-6.15.7-9.23.06-1.22.15-3.07-.55-3.6-3-2.23-6.23-4.06-9.79-6.3-.25 7.47 3.8 13.07 7.27 19.07a3 3 0 0 1 -2.12-1.06z"/><path d="m551.76 604.64c1.12-3.19 1-3.44-2.34-4.74a14.39 14.39 0 0 1 -.62 1.58c-1.78 3.37-3.52 6.76-5.4 10.07-.4.69-1.31 1.09-2 1.62l-.56-.57c.27-.47.54-.94.8-1.41 1.89-3.48 3.8-7 5.65-10.45.65-1.21.33-2.08-1-2.78-1.65-.87-3.16-2-4.72-3-3.1 2-4.24 5.27-3.59 9a54.54 54.54 0 0 1 .7 8.37 27.67 27.67 0 0 1 -.8 4.81c2.42-1.34 4.64-2.41 6.67-3.75a17.27 17.27 0 0 0 7.21-8.75z"/><path d="m530 571.63c.53-.36.53-1.52.78-2.3a5.68 5.68 0 0 0 -1.9-.15 15.6 15.6 0 0 0 -8 5.29c-3.78 4.57-4.2 10-4.56 16 3.22-3.37 7-4.49 11.05-5.24 3-.56 5.75-1.71 7.49-4.5-2.46 1.12-4.81 2.45-7.23 3.65a6 6 0 0 1 -2.1.15c.38-.56.63-1.34 1.16-1.65 3.71-2.21 4.4-5.76 4.68-9.95-4.89 2.6-7.67 6.59-10.53 10.51a14 14 0 0 1 -2 1.85 9.59 9.59 0 0 1 .72-2.75 36.13 36.13 0 0 1 10.44-10.91z"/><path d="m549.28 627.22c-4.07 3.58-5.71 8.84-8.6 13.42a3 3 0 0 1 -.27-2.2 26 26 0 0 1 1.72-4c1.37-2.46 2.86-4.85 4.34-7.32a25.22 25.22 0 0 1 -3.76 1.22c-2.07.33-3 1.55-3.6 3.42-1.51 4.52-.59 9 0 13.77 3.6-5.73 10.55-6.14 15.08-9.64z"/><path d="m529.33 586.46c-1.86.24-2.52 1.41-3 2.94-1.57 4.72-.9 9.41.07 14.22 2.83-5.84 9.74-6 13.56-9.76l-4.79-9.3c-2.54 4.85-4.95 9.42-7.36 14-1.17-1.44-1.17-1.44 5.19-13.43a18 18 0 0 1 -3.67 1.33z"/><path d="m531.69 580.45c2.64-1.51 5-2.69 7.12-4.11 2.6-1.71 2.54-1.8.64-4.39-1.73 1.06-1.79 4-5.1 4.26l2.22-3.28c1.17-1.74 2.13-3.32 1.45-5.75a17.05 17.05 0 0 1 -.08-6.83 42.1 42.1 0 0 1 1.93-6.33 12.06 12.06 0 0 0 -7.77 14.25 32.93 32.93 0 0 1 .47 8 22.14 22.14 0 0 1 -.88 4.18z"/><path d="m548.74 622.83c-.21-.1-.3-.17-.34-.15-2.39 1.15-4.75 2.38-7.19 3.43a10.71 10.71 0 0 1 -2.81.39 10.43 10.43 0 0 1 1.89-2 8.37 8.37 0 0 0 3.73-9.12 59.53 59.53 0 0 0 -6 4.67c-2 2-3.58 4.36-5.43 6.51a5.48 5.48 0 0 1 -1.66.89l-.51-.72 3.8-5.37h-2.55a8.94 8.94 0 0 1 1.52-1.89c2.29-1.62 3.4-3.32 3.59-5.85-5.53 3.49-9.47 12.38-8.18 18.47 4.63-3.25 5.11-3.4 11.43-4.68 3.25-.68 6.41-1.68 8.71-4.58z"/><path d="m583.42 655.51c.43-.55 1.17-1 1.26-1.65.58-3.63.94-7.3 1.5-10.94 1.54-9.9-3.89-18.57-13.51-21.38a41.08 41.08 0 0 0 -4.46-.75l-.3.89a5.82 5.82 0 0 0 1.73.92 16.85 16.85 0 0 1 14.18 11.25c1.85 4.73.64 9.51-.16 14.83-3.29-5.46-8.67-7-13.55-9.39l-.48.45a8.36 8.36 0 0 0 1.72 1.83c2.43 1.4 5.11 2.43 7.4 4 2.71 1.9 4.44 4.55 4.15 8.14a5.09 5.09 0 0 0 .52 1.8z"/><path d="m499.64 655.75c.37-1.79.76-3.75 1.18-5.71a17.25 17.25 0 0 1 21-13.36c.5.13 1.15-.33 1.73-.52-.08-.23-.15-.47-.23-.7-.42-.09-.85-.14-1.27-.26-8.05-2.2-18.05 2-21.05 9.8-2.06 5.25-2.89 11-4.2 16.51-.1.44.42 1 .65 1.56.37-.43.93-.81 1.07-1.3a8.33 8.33 0 0 1 6.09-6.21 56.17 56.17 0 0 1 8.29-1.34c1.23-.14 2.36-.13 2.55-1.92a65.54 65.54 0 0 0 -8 .8 66.88 66.88 0 0 0 -7.81 2.65z"/><path d="m578.56 636.12c.87 1.82 1.53 3.73 2.39 5.55.22.46.85.71 1.29 1.06.1-.55.42-1.18.26-1.65a49.8 49.8 0 0 0 -2-4.8 30.49 30.49 0 0 0 -11.61-13.28l-.51.48a12.39 12.39 0 0 0 1.76 2.27 30.5 30.5 0 0 1 8.42 10.37z"/><path d="m502.48 650.87.27.7c.56-.26 1.3-.36 1.66-.78 4.3-5.16 9.35-9.23 15.82-11.38a8.73 8.73 0 0 0 2-1.39c-6.68.09-15.94 6.55-19.75 12.85z"/><path d="m565.73 600.73c.07-.48.34-1 .18-1.44a78.1 78.1 0 0 0 -3.34-8.14c-1.47-2.86-3.23-5.6-6.83-6.51a31.87 31.87 0 0 1 3.53 4.41c1.9 3.46 3.49 7.07 5.26 10.6.23.44.79.72 1.2 1.08z"/><path d="m533.93 609.18c-.61 1.84-1.19 3.59-1.76 5.33l.55.26q2.19-4 4.37-8c-3.39 1.48-7.16.49-10.25 1.93l.18.89z"/><path d="m516.88 609.46c2.59.08 5.18 0 7.77 0 .09-.23.18-.45.26-.68l-1.79-1 1.64-3.09-.76-.38c-1.9 2.15-4.08 3.66-7.14 3.44-.39 0-.83.55-1.26.85.4.33.84.85 1.28.86z"/><path d="m564.83 571.17-8.89-5.79c-.04 2.4 5.75 6.54 8.89 5.79z"/><path d="m550.35 642.53-9.3 4.81.28.95c3-.3 5.56-2.14 8.16-3.63.42-.25.51-1.13.86-2.13z"/><path d="m535 666.71c1.36 1.34 2.28 3.66 5.45 3.44l-7.21-7.75c-.75 1.6-.86 1.72 1.76 4.31z"/><path d="m525 587.43-5.54 2.49 3.93 3.45c.53-2.11 1.02-3.9 1.61-5.94z"/><path d="m528.08 606c.43.07.95.35 1.26.2 2.06-1 4.11-2.08 6.07-3.26.47-.29.62-1.13.91-1.72l-.37-.24c-2.4 1.28-4.82 2.53-7.2 3.86-.33.16-.45.71-.67 1.16z"/><path d="m538 629.51-3.06.73c.46 1.53.84 2.79 1.38 4.6.6-2.05 1.06-3.51 1.68-5.33z"/></svg>